<?xml version="1.0" encoding="UTF-8" ?>
<!DOCTYPE svg PUBLIC "-//W3C//DTD SVG 1.1//EN" "http://www.w3.org/Graphics/SVG/1.1/DTD/svg11.dtd">
<svg width="200px" height="60px" viewBox="0 0 1632 317" version="1.1" xmlns="http://www.w3.org/2000/svg">
<g id="#ffffffff">
<path fill="#ffffff" opacity="1.00" d=" M 152.77 35.10 C 163.39 32.91 174.25 33.45 185.01 33.65 C 212.28 36.27 238.89 47.31 259.25 65.77 C 264.19 69.47 267.86 74.48 271.82 79.14 C 284.94 95.39 293.64 115.07 297.36 135.58 C 299.20 146.62 298.13 157.85 298.44 169.00 C 295.09 210.48 268.83 249.40 231.19 267.40 C 218.39 274.06 204.33 278.01 190.05 279.75 C 182.45 281.21 174.68 280.30 167.00 280.56 C 142.51 279.36 118.44 270.90 98.63 256.42 C 71.28 236.96 53.67 205.16 49.67 172.02 C 49.64 162.34 49.63 152.67 49.67 142.99 C 53.36 106.54 74.43 72.04 105.79 52.90 C 120.00 43.83 136.15 37.83 152.77 35.10 M 188.42 111.49 C 185.04 113.32 184.59 117.66 182.80 120.74 C 170.86 145.48 159.90 170.71 146.92 194.93 C 146.08 196.60 145.17 198.66 146.79 200.20 C 149.73 201.98 153.38 202.07 156.70 201.68 C 158.21 201.32 158.83 199.81 159.48 198.59 C 168.60 178.77 178.05 159.09 187.36 139.37 C 190.51 132.67 194.04 126.16 197.52 119.63 C 198.30 117.70 199.96 115.47 198.65 113.41 C 195.79 111.28 191.84 110.94 188.42 111.49 M 128.61 136.72 C 116.46 142.21 104.23 147.54 92.13 153.11 C 89.69 155.76 89.74 161.32 91.98 164.07 C 106.03 170.75 120.39 176.81 134.54 183.32 C 136.23 183.96 139.24 185.60 139.88 182.82 C 140.45 179.16 141.87 173.32 137.50 171.50 C 128.19 167.22 118.76 163.18 109.47 158.84 C 117.23 154.52 125.63 151.47 133.63 147.62 C 135.97 146.34 139.38 145.83 140.30 142.95 C 140.62 139.43 140.71 135.72 138.96 132.53 C 135.39 133.62 131.95 135.07 128.61 136.72 M 208.49 133.45 C 207.05 136.67 207.41 140.44 207.86 143.85 C 210.07 146.34 213.48 147.08 216.33 148.59 C 223.65 152.12 231.40 154.80 238.44 158.88 C 228.91 163.20 219.30 167.35 209.83 171.79 C 206.95 173.02 207.58 176.49 207.53 179.00 C 207.58 180.95 207.39 184.12 210.00 184.43 C 213.08 183.68 215.88 182.13 218.76 180.85 C 230.97 175.38 243.19 169.95 255.38 164.44 C 257.52 163.59 257.36 160.91 257.44 159.01 C 257.36 156.86 257.64 153.71 255.18 152.80 C 241.37 146.60 227.54 140.46 213.74 134.24 C 212.04 133.78 210.16 131.98 208.49 133.45 Z" />
<path fill="#ffffff" opacity="1.00" d=" M 1000.70 113.02 C 998.74 103.45 1012.54 97.80 1019.17 103.83 C 1022.32 106.18 1022.20 110.41 1022.87 113.90 C 1027.20 139.62 1031.20 165.40 1035.74 191.08 C 1042.26 166.61 1048.03 141.93 1054.27 117.37 C 1055.55 112.50 1056.17 106.77 1060.47 103.48 C 1064.37 100.74 1069.90 100.86 1074.02 103.06 C 1077.85 105.87 1078.96 110.78 1079.99 115.15 C 1084.20 132.18 1088.46 149.19 1092.68 166.22 C 1094.94 174.48 1096.46 182.97 1099.17 191.09 C 1103.79 163.35 1108.27 135.58 1112.97 107.86 C 1115.69 98.56 1130.60 99.86 1133.72 108.24 C 1134.91 110.49 1134.06 113.01 1133.62 115.33 C 1126.41 148.67 1119.41 182.06 1112.21 215.41 C 1109.61 226.46 1091.11 226.94 1087.92 216.04 C 1081.00 190.68 1074.31 165.26 1067.41 139.90 C 1064.11 149.60 1062.04 159.70 1059.24 169.56 C 1055.00 185.26 1051.04 201.05 1046.64 216.71 C 1042.82 226.84 1025.26 226.32 1022.62 215.59 C 1015.33 181.39 1008.01 147.20 1000.70 113.02 Z" />
<path fill="#ffffff" opacity="1.00" d=" M 388.07 108.98 C 391.64 98.96 408.29 98.98 411.97 108.90 C 423.87 142.99 435.65 177.14 447.46 211.26 C 449.35 216.49 445.23 221.95 440.12 223.04 C 435.14 224.80 428.44 222.64 426.73 217.32 C 424.43 210.20 422.33 203.01 420.07 195.88 C 406.53 196.09 392.97 195.51 379.45 196.18 C 377.20 203.61 375.01 211.08 372.40 218.39 C 368.54 226.19 355.89 225.15 352.26 217.67 C 351.22 215.67 351.15 213.26 351.96 211.18 C 364.01 177.12 376.00 143.04 388.07 108.98 M 385.55 177.85 C 395.08 177.66 404.62 177.82 414.15 177.76 C 409.73 162.37 404.93 147.08 400.07 131.82 C 395.21 147.15 390.10 162.42 385.55 177.85 Z" />
<path fill="#ffffff" opacity="1.00" d=" M 684.68 109.67 C 687.69 98.93 705.31 98.75 708.94 109.10 C 720.21 141.73 731.51 174.34 742.86 206.94 C 743.90 210.00 745.49 213.25 744.43 216.53 C 741.53 224.80 727.86 226.39 723.93 218.21 C 721.41 210.90 719.29 203.45 717.01 196.07 C 703.46 195.84 689.86 195.64 676.33 196.17 C 674.13 203.60 671.83 211.01 669.31 218.33 C 665.27 226.62 651.46 224.98 648.65 216.51 C 647.58 213.34 649.19 210.23 650.20 207.29 C 661.70 174.75 673.19 142.21 684.68 109.67 M 682.19 177.52 C 691.79 178.08 701.44 177.62 711.06 177.75 C 706.59 162.38 701.70 147.13 696.98 131.84 C 691.80 146.98 687.41 162.39 682.19 177.52 Z" />
<path fill="#ffffff" opacity="1.00" d=" M 787.00 108.98 C 790.52 98.91 807.24 99.02 810.92 108.91 C 822.16 141.34 833.36 173.79 844.62 206.21 C 845.71 209.52 847.57 212.98 846.44 216.54 C 843.60 224.62 830.48 226.35 826.22 218.68 C 823.45 211.26 821.44 203.56 819.04 196.01 C 805.49 195.92 791.91 195.60 778.38 196.17 C 776.25 203.42 773.95 210.63 771.59 217.80 C 769.17 223.87 761.00 225.32 755.71 222.23 C 751.79 220.28 749.12 215.45 750.89 211.18 C 762.94 177.12 774.93 143.03 787.00 108.98 M 784.50 177.86 C 794.03 177.64 803.57 177.83 813.11 177.75 C 808.65 162.38 803.79 147.12 799.01 131.85 C 794.07 147.15 788.97 162.42 784.50 177.86 Z" />
<path fill="#ffffff" opacity="1.00" d=" M 888.38 102.59 C 900.45 100.54 913.44 100.99 924.62 106.40 C 935.16 111.48 942.87 121.55 945.71 132.83 C 948.53 142.31 947.64 152.26 947.79 162.00 C 947.61 172.18 948.61 182.58 945.71 192.49 C 943.02 203.53 935.60 213.38 925.42 218.53 C 915.31 224.16 903.32 224.53 892.08 223.50 C 878.53 221.96 865.47 213.92 859.49 201.43 C 852.83 188.34 853.98 173.23 853.85 159.00 C 853.77 146.11 854.06 132.36 861.11 121.06 C 866.96 111.27 877.23 104.63 888.38 102.59 M 892.40 122.56 C 886.76 123.99 881.40 127.44 878.68 132.70 C 875.64 138.63 875.24 145.44 875.36 151.99 C 875.41 161.19 875.25 170.40 875.45 179.60 C 875.78 186.53 877.66 194.16 883.42 198.60 C 889.68 203.79 898.29 204.44 906.07 203.61 C 913.33 202.77 920.71 198.66 923.52 191.62 C 927.46 181.92 925.94 171.20 926.25 161.00 C 926.03 150.78 927.48 139.44 921.52 130.46 C 914.99 121.53 902.44 120.33 892.40 122.56 Z" />
<path fill="#ffffff" opacity="1.00" d=" M 1238.45 110.05 C 1238.79 102.56 1248.57 99.56 1254.55 102.50 C 1258.62 104.08 1259.81 108.59 1262.22 111.79 C 1278.10 134.89 1293.79 158.12 1309.77 181.14 C 1309.84 158.08 1309.80 135.02 1309.79 111.96 C 1309.64 109.24 1310.31 106.31 1312.44 104.46 C 1318.11 98.84 1330.73 101.07 1331.33 109.97 C 1331.44 144.66 1331.34 179.35 1331.38 214.03 C 1331.87 218.94 1327.68 223.50 1322.86 223.82 C 1320.01 224.00 1316.90 224.16 1314.40 222.56 C 1311.59 221.01 1310.32 217.92 1308.55 215.43 C 1296.07 197.26 1283.59 179.10 1271.09 160.95 C 1267.46 155.81 1264.16 150.43 1260.23 145.52 C 1260.08 168.37 1260.22 191.22 1260.16 214.07 C 1260.40 217.74 1258.25 221.27 1254.97 222.87 C 1248.97 225.65 1239.29 223.32 1238.48 215.81 C 1238.35 180.56 1238.41 145.30 1238.45 110.05 Z" />
<path fill="#ffffff" opacity="1.00" d=" M 1538.37 110.97 C 1537.93 106.41 1541.79 102.61 1546.04 101.77 C 1552.12 99.99 1560.46 103.81 1560.06 110.93 C 1560.09 141.43 1560.10 171.94 1560.06 202.44 C 1573.96 202.58 1587.88 202.28 1601.78 202.59 C 1608.71 202.87 1612.16 211.43 1609.11 217.13 C 1607.46 221.01 1602.91 222.23 1599.06 222.10 C 1582.04 222.03 1565.02 222.22 1548.01 222.00 C 1543.14 222.05 1538.20 218.14 1538.38 213.04 C 1538.34 179.02 1538.38 144.99 1538.37 110.97 Z" />
<path fill="#ffffff" opacity="1.00" d=" M 459.74 112.96 C 459.38 107.50 464.77 103.15 469.96 103.26 C 480.32 103.18 490.69 103.21 501.06 103.25 C 511.00 103.34 521.16 105.81 529.30 111.71 C 541.78 120.69 545.08 139.95 536.71 152.72 C 533.85 156.94 529.24 159.31 524.92 161.74 C 531.48 163.74 538.23 167.10 541.61 173.40 C 546.33 182.21 546.31 193.06 543.18 202.40 C 540.52 209.99 533.95 215.61 526.54 218.35 C 514.93 222.96 502.22 221.99 490.00 222.09 C 483.34 222.01 476.66 222.27 470.01 221.97 C 464.72 221.93 459.82 217.39 459.76 212.04 C 459.72 179.01 459.76 145.99 459.74 112.96 M 481.54 121.85 C 481.51 132.57 481.51 143.29 481.54 154.00 C 487.36 153.99 493.18 153.99 499.00 154.02 C 505.14 154.13 511.93 152.95 516.41 148.40 C 520.23 144.39 519.98 138.48 519.44 133.36 C 518.54 128.15 514.00 124.32 509.00 123.16 C 500.04 120.89 490.68 122.19 481.54 121.85 M 481.54 171.00 C 481.51 182.11 481.51 193.22 481.54 204.33 C 490.01 204.22 498.50 204.62 506.95 204.09 C 513.47 203.56 520.93 200.55 522.95 193.72 C 524.33 187.91 524.03 180.89 519.55 176.44 C 515.96 172.38 510.23 171.34 505.07 171.12 C 497.23 170.88 489.38 171.10 481.54 171.00 Z" />
<path fill="#ffffff" opacity="1.00" d=" M 559.33 112.97 C 558.73 107.22 564.72 102.94 570.04 103.24 C 581.23 103.28 592.42 103.04 603.60 103.41 C 614.19 104.30 625.65 106.75 633.26 114.75 C 639.78 121.34 642.09 130.96 641.77 140.00 C 641.99 146.94 640.14 154.19 635.47 159.48 C 631.93 163.44 627.02 165.73 622.24 167.82 C 629.21 182.14 636.17 196.45 643.20 210.74 C 645.44 215.87 641.03 221.42 636.34 223.23 C 631.93 224.97 625.89 223.77 623.73 219.19 C 616.83 204.61 610.22 189.88 603.27 175.32 C 595.89 175.77 588.50 175.37 581.11 175.58 C 581.21 188.07 581.13 200.56 581.16 213.04 C 580.99 215.28 581.06 217.78 579.70 219.70 C 574.66 226.85 560.77 224.85 559.43 215.67 C 559.20 181.44 559.41 147.20 559.33 112.97 M 581.15 121.87 C 581.18 133.79 581.13 145.72 581.17 157.65 C 587.47 157.54 593.77 157.73 600.06 157.56 C 605.70 157.16 611.95 156.36 616.07 152.06 C 621.02 147.53 620.66 140.08 619.49 134.04 C 618.11 127.59 611.82 123.50 605.62 122.58 C 597.52 121.35 589.30 122.00 581.15 121.87 Z" />
<path fill="#ffffff" opacity="1.00" d=" M 1150.32 112.97 C 1149.74 107.21 1155.70 102.91 1161.05 103.24 C 1179.26 103.27 1197.48 103.07 1215.69 103.34 C 1223.86 103.59 1226.84 115.13 1221.32 120.33 C 1219.13 122.42 1215.97 122.86 1213.09 122.96 C 1199.35 123.07 1185.62 122.84 1171.89 123.08 C 1171.91 132.74 1171.80 142.41 1171.95 152.07 C 1181.32 152.20 1190.70 152.06 1200.08 152.14 C 1202.92 152.12 1205.99 152.80 1207.99 154.99 C 1213.13 160.19 1210.41 171.20 1202.48 171.59 C 1192.34 172.01 1182.18 171.62 1172.04 171.78 C 1171.69 181.99 1171.97 192.21 1171.89 202.42 C 1186.51 202.61 1201.15 202.26 1215.78 202.60 C 1221.75 202.86 1225.37 209.53 1223.79 214.97 C 1223.11 219.58 1218.42 222.25 1214.05 222.06 C 1196.34 222.11 1178.63 222.12 1160.93 222.06 C 1155.87 222.25 1150.15 218.53 1150.34 213.04 C 1150.30 179.69 1150.34 146.33 1150.32 112.97 Z" />
<path fill="#ffffff" opacity="1.00" d=" M 1358.33 103.38 C 1366.54 103.00 1374.78 103.32 1383.01 103.22 C 1392.03 103.10 1401.30 104.32 1409.41 108.52 C 1418.12 112.71 1425.11 120.19 1428.98 129.02 C 1432.89 137.77 1434.00 147.49 1433.78 157.00 C 1433.50 168.44 1434.86 180.19 1431.39 191.30 C 1428.73 200.71 1422.74 209.21 1414.41 214.42 C 1406.05 219.93 1395.91 222.00 1386.02 222.09 C 1377.66 222.08 1369.29 222.12 1360.93 222.08 C 1357.30 222.13 1353.35 220.97 1351.25 217.82 C 1349.31 215.29 1349.72 211.97 1349.69 208.99 C 1349.71 177.32 1349.72 145.64 1349.69 113.97 C 1348.86 108.74 1353.23 103.88 1358.33 103.38 M 1371.39 123.06 C 1371.62 149.56 1371.19 176.06 1371.60 202.55 C 1381.54 202.03 1392.47 204.02 1401.37 198.40 C 1408.84 194.14 1412.10 185.25 1412.07 177.00 C 1412.04 167.31 1412.38 157.60 1411.86 147.91 C 1411.41 138.91 1406.64 129.75 1398.29 125.77 C 1389.89 121.80 1380.36 123.19 1371.39 123.06 Z" />
<path fill="#ffffff" opacity="1.00" d=" M 1450.28 112.15 C 1450.24 106.71 1455.98 102.94 1461.04 103.24 C 1479.25 103.28 1497.48 103.07 1515.69 103.34 C 1523.82 103.62 1526.79 115.11 1521.30 120.30 C 1518.86 122.66 1515.26 122.93 1512.06 122.99 C 1498.67 123.00 1485.28 122.93 1471.90 123.03 C 1471.89 132.72 1471.89 142.42 1471.90 152.11 C 1481.28 152.15 1490.66 152.08 1500.05 152.14 C 1502.90 152.12 1505.98 152.81 1507.97 155.02 C 1513.04 160.22 1510.36 171.17 1502.47 171.59 C 1492.29 172.01 1482.09 171.62 1471.91 171.78 C 1471.89 182.00 1471.88 192.22 1471.92 202.44 C 1486.53 202.60 1501.16 202.26 1515.78 202.60 C 1522.91 202.95 1526.15 211.99 1522.74 217.65 C 1520.96 221.16 1516.68 222.17 1513.06 222.10 C 1495.68 222.07 1478.31 222.14 1460.93 222.06 C 1455.85 222.26 1450.13 218.55 1450.28 213.05 C 1450.25 179.42 1450.25 145.78 1450.28 112.15 Z" />
</g>
</svg>
