<?xml version="1.0" encoding="UTF-8" ?>
<!DOCTYPE svg PUBLIC "-//W3C//DTD SVG 1.1//EN" "http://www.w3.org/Graphics/SVG/1.1/DTD/svg11.dtd">
<svg width="1632pt" height="544pt" viewBox="0 0 1632 544" version="1.1" xmlns="http://www.w3.org/2000/svg">
<g id="#ffffffff">
<path fill="#ffffff" opacity="1.00" d=" M 161.39 147.54 C 164.58 147.17 167.85 147.78 171.00 146.99 C 175.01 145.74 178.96 147.91 183.01 147.42 C 188.19 147.03 193.25 148.19 198.35 148.87 C 221.31 153.34 243.32 163.57 260.66 179.38 C 265.11 182.57 268.33 187.03 271.88 191.11 C 286.84 209.22 296.62 231.64 299.42 254.98 C 299.71 264.98 299.54 275.01 299.51 285.02 C 296.79 308.89 286.98 332.01 271.39 350.32 C 255.90 369.03 234.36 382.20 211.21 389.20 C 201.58 391.28 191.92 393.85 182.00 393.72 C 174.33 393.63 166.63 393.99 158.99 393.14 C 145.51 390.85 131.91 387.84 119.74 381.36 C 99.09 371.73 81.17 356.17 69.27 336.69 C 59.92 321.27 53.13 304.03 51.38 285.99 C 51.53 274.66 51.01 263.29 51.66 251.98 C 56.12 221.01 72.85 191.82 97.82 172.86 C 116.23 158.87 138.46 150.22 161.39 147.54 M 189.32 225.22 C 187.64 225.97 187.07 227.86 186.29 229.37 C 182.27 238.82 177.55 247.96 173.28 257.30 C 165.84 272.54 159.19 288.17 151.06 303.06 C 149.66 305.92 147.64 308.65 147.23 311.88 C 147.98 314.32 150.82 314.80 152.99 315.20 C 155.46 315.39 158.94 315.93 160.25 313.20 C 169.82 292.53 179.71 271.99 189.40 251.38 C 192.54 244.63 196.33 238.22 199.62 231.56 C 200.48 229.87 201.24 227.01 198.91 226.15 C 196.02 224.76 192.36 224.10 189.32 225.22 M 130.74 249.82 C 118.18 255.58 105.44 260.98 92.98 266.92 C 91.38 269.98 91.49 274.00 92.84 277.14 C 105.91 283.59 119.48 289.11 132.71 295.26 C 135.40 296.34 138.10 298.24 141.13 297.47 C 141.51 293.70 143.19 288.75 140.26 285.70 C 130.66 280.76 120.43 277.07 110.85 272.08 C 118.79 268.15 127.00 264.78 135.04 261.06 C 137.22 259.99 139.77 259.32 141.38 257.39 C 142.32 253.70 142.01 249.67 140.54 246.16 C 137.06 246.71 133.96 248.47 130.74 249.82 M 209.91 246.71 C 208.60 249.89 208.77 253.47 209.14 256.81 C 210.41 259.34 213.50 260.02 215.85 261.20 C 223.81 264.86 231.95 268.16 239.79 272.07 C 230.11 277.17 219.68 280.79 210.03 285.93 C 208.10 289.51 208.59 294.29 210.19 297.97 C 214.04 297.43 217.40 295.35 220.95 293.92 C 233.27 288.21 245.85 283.03 258.04 277.06 C 258.71 273.34 260.16 267.10 255.32 265.69 C 241.50 259.53 227.72 253.31 213.89 247.18 C 212.62 246.76 211.17 245.67 209.91 246.71 Z" />
<path fill="#ffffff" opacity="1.00" d=" M 380.30 222.27 C 384.04 212.18 400.82 212.53 404.22 222.71 C 416.01 256.60 427.75 290.50 439.50 324.40 C 441.40 328.93 438.35 334.22 433.99 335.91 C 428.76 338.26 421.00 336.93 418.93 330.97 C 416.64 323.82 414.40 316.65 412.34 309.43 C 398.79 309.23 385.22 309.25 371.66 309.42 C 369.61 316.41 367.32 323.32 365.15 330.27 C 363.61 335.92 356.72 338.39 351.49 336.59 C 346.66 335.44 342.17 330.34 343.95 325.19 C 356.04 290.88 368.14 256.56 380.30 222.27 M 377.56 291.12 C 387.18 291.18 396.80 291.17 406.42 291.13 C 401.68 275.91 397.18 260.61 392.17 245.48 C 387.14 260.64 382.42 275.91 377.56 291.12 Z" />
<path fill="#ffffff" opacity="1.00" d=" M 678.99 219.00 C 685.12 211.89 698.92 214.22 701.31 223.68 C 712.89 257.09 724.46 290.49 736.07 323.88 C 736.85 325.92 737.13 328.24 736.24 330.29 C 733.31 338.26 720.13 339.58 716.06 331.96 C 713.39 324.51 711.39 316.82 708.91 309.30 C 695.43 309.35 681.95 309.27 668.47 309.34 C 666.21 316.47 664.04 323.62 661.70 330.71 C 660.22 335.49 654.63 337.88 649.96 336.98 C 644.38 336.44 638.63 330.94 640.73 325.04 C 652.19 292.43 663.76 259.86 675.23 227.26 C 676.32 224.46 676.92 221.30 678.99 219.00 M 674.30 291.13 C 683.91 291.17 693.51 291.18 703.12 291.12 C 698.44 275.93 693.91 260.68 688.92 245.59 C 683.79 260.68 679.16 275.94 674.30 291.13 Z" />
<path fill="#ffffff" opacity="1.00" d=" M 780.54 219.53 C 785.06 213.78 794.50 213.32 799.86 218.14 C 802.33 220.04 803.10 223.19 804.11 225.98 C 815.53 258.86 826.95 291.74 838.34 324.63 C 838.97 326.45 839.00 328.50 838.27 330.30 C 835.32 338.30 822.06 339.57 818.04 331.88 C 815.43 324.44 813.40 316.80 810.94 309.30 C 797.45 309.35 783.96 309.27 770.47 309.34 C 768.21 316.47 766.04 323.62 763.70 330.71 C 762.23 335.49 756.63 337.88 751.96 336.98 C 746.37 336.44 740.63 330.93 742.73 325.03 C 754.19 292.43 765.76 259.87 777.22 227.27 C 778.22 224.65 778.84 221.81 780.54 219.53 M 776.30 291.13 C 785.91 291.17 795.51 291.18 805.12 291.13 C 800.43 275.95 795.95 260.70 790.92 245.65 C 785.76 260.71 781.16 275.96 776.30 291.13 Z" />
<path fill="#ffffff" opacity="1.00" d=" M 881.47 215.77 C 893.80 213.99 907.14 214.53 918.21 220.80 C 927.42 225.76 934.18 234.65 937.13 244.63 C 941.09 257.04 939.42 270.20 939.78 282.99 C 940.15 294.86 939.00 307.35 932.67 317.69 C 926.03 328.73 913.67 335.46 901.06 336.88 C 889.01 338.13 876.04 337.10 865.63 330.36 C 856.48 324.84 850.25 315.27 847.84 304.96 C 844.96 293.53 846.14 281.65 845.89 269.99 C 845.66 258.49 846.43 246.43 852.16 236.16 C 857.96 225.16 869.35 217.85 881.47 215.77 M 885.52 235.78 C 880.08 237.01 874.73 239.84 871.59 244.58 C 865.84 253.63 867.59 264.83 867.29 275.00 C 867.65 284.99 865.97 295.52 870.01 305.00 C 872.99 312.12 880.54 316.21 887.95 317.00 C 895.97 317.91 905.00 316.87 911.15 311.15 C 916.87 305.77 917.93 297.43 918.12 289.99 C 918.12 280.33 918.20 270.66 918.08 260.99 C 917.80 253.91 916.45 246.05 910.93 241.08 C 904.06 235.04 894.17 234.26 885.52 235.78 Z" />
<path fill="#ffffff" opacity="1.00" d=" M 992.67 226.96 C 991.01 221.12 996.30 215.52 1001.96 215.04 C 1007.09 214.00 1013.54 217.14 1014.04 222.79 C 1018.51 250.22 1023.10 277.63 1027.57 305.07 C 1034.02 280.22 1040.03 255.26 1046.28 230.37 C 1047.44 226.14 1047.91 221.38 1051.04 218.05 C 1054.56 214.32 1060.52 214.13 1065.03 216.01 C 1068.27 217.81 1069.92 221.48 1070.88 224.92 C 1077.53 251.61 1084.15 278.32 1090.82 305.01 C 1095.65 277.33 1099.96 249.55 1104.67 221.84 C 1105.66 216.47 1112.05 213.97 1116.96 215.14 C 1122.46 215.78 1127.51 221.28 1125.83 226.98 C 1118.57 261.01 1111.29 295.04 1103.96 329.05 C 1101.06 339.95 1082.74 340.11 1079.68 329.22 C 1072.78 303.84 1066.10 278.40 1059.18 253.03 C 1052.13 278.50 1045.67 304.13 1038.70 329.62 C 1035.32 340.05 1017.60 339.87 1014.61 329.25 C 1007.21 295.18 1000.00 261.05 992.67 226.96 Z" />
<path fill="#ffffff" opacity="1.00" d=" M 1230.41 222.19 C 1232.59 213.64 1245.90 212.26 1250.51 219.46 C 1253.78 225.65 1258.19 231.14 1261.99 237.00 C 1274.32 255.02 1286.66 273.04 1298.97 291.08 C 1299.74 292.22 1300.60 293.30 1301.55 294.32 C 1301.75 270.54 1301.48 246.75 1301.68 222.97 C 1302.85 214.15 1316.21 212.02 1321.25 218.72 C 1322.78 220.39 1323.13 222.74 1323.13 224.93 C 1323.14 258.97 1323.12 293.01 1323.14 327.06 C 1323.15 329.28 1322.92 331.70 1321.41 333.46 C 1317.27 338.50 1308.41 338.80 1303.93 334.08 C 1286.59 309.01 1269.48 283.72 1251.93 258.78 C 1251.74 281.86 1251.91 304.95 1251.85 328.04 C 1251.78 329.40 1251.75 330.84 1251.07 332.07 C 1246.86 340.37 1231.07 338.66 1230.27 328.87 C 1230.15 300.91 1230.25 272.96 1230.22 245.00 C 1230.34 237.40 1229.96 229.77 1230.41 222.19 Z" />
<path fill="#ffffff" opacity="1.00" d=" M 1530.14 223.01 C 1531.10 214.77 1542.94 212.31 1548.55 217.46 C 1550.44 219.07 1551.82 221.40 1551.68 223.96 C 1551.75 254.57 1551.64 285.18 1551.74 315.79 C 1565.17 315.80 1578.61 315.73 1592.05 315.82 C 1596.50 315.63 1601.60 319.03 1601.11 323.92 C 1600.98 326.78 1601.75 330.25 1599.44 332.47 C 1596.82 335.33 1592.66 335.59 1589.05 335.57 C 1573.03 335.53 1557.00 335.59 1540.98 335.55 C 1536.06 335.65 1530.10 332.51 1530.11 327.00 C 1530.09 292.34 1530.02 257.67 1530.14 223.01 Z" />
<path fill="#ffffff" opacity="1.00" d=" M 458.38 217.43 C 462.79 216.15 467.47 216.92 472.00 216.72 C 483.32 216.97 494.80 215.86 505.96 218.24 C 515.47 220.35 524.67 225.76 529.52 234.43 C 533.91 242.61 534.56 252.78 531.34 261.48 C 528.92 267.97 523.01 272.21 516.96 275.02 C 522.68 277.02 528.75 279.50 532.33 284.68 C 538.09 293.14 538.47 304.25 535.90 313.89 C 534.12 320.81 529.01 326.51 522.74 329.75 C 513.71 334.73 503.13 335.43 493.04 335.56 C 482.76 335.51 472.49 335.67 462.22 335.48 C 456.74 335.47 451.74 330.58 451.89 325.06 C 451.87 292.02 451.85 258.98 451.90 225.95 C 451.74 222.00 454.88 218.73 458.38 217.43 M 473.66 235.20 C 473.53 245.92 473.62 256.64 473.62 267.37 C 480.40 267.36 487.19 267.42 493.98 267.36 C 499.72 267.18 506.05 265.44 509.55 260.56 C 512.17 256.96 511.93 252.26 511.67 248.04 C 511.25 242.45 506.60 237.84 501.27 236.60 C 492.27 234.20 482.85 235.66 473.66 235.20 M 473.61 284.55 C 473.69 295.61 473.39 306.69 473.76 317.75 C 482.09 317.51 490.44 317.84 498.77 317.57 C 505.42 317.18 512.97 314.07 515.02 307.13 C 516.23 301.86 516.26 295.68 512.80 291.20 C 509.51 286.48 503.43 284.95 498.00 284.66 C 489.87 284.39 481.74 284.57 473.61 284.55 Z" />
<path fill="#ffffff" opacity="1.00" d=" M 551.38 225.96 C 551.18 220.49 556.87 216.56 561.95 216.75 C 572.96 216.75 583.99 216.55 595.00 216.90 C 605.67 217.71 617.23 220.03 625.01 227.97 C 631.62 234.43 633.97 244.01 633.85 253.00 C 634.04 259.98 632.27 267.27 627.66 272.66 C 624.12 276.74 619.13 279.08 614.27 281.21 C 621.33 295.64 628.35 310.09 635.41 324.51 C 637.12 328.80 633.88 333.20 630.44 335.51 C 625.83 338.71 618.12 337.81 615.66 332.34 C 608.92 318.04 602.36 303.64 595.56 289.37 L 594.90 288.92 C 587.62 288.80 580.34 288.93 573.06 288.89 C 573.02 302.28 573.15 315.67 573.01 329.06 C 572.92 334.52 567.01 338.01 561.99 337.31 C 556.46 337.52 550.88 332.78 551.37 327.02 C 551.38 293.33 551.36 259.65 551.38 225.96 M 573.06 235.22 C 573.06 247.18 573.06 259.15 573.07 271.12 C 579.39 271.08 585.72 271.21 592.05 271.06 C 598.03 270.68 604.75 269.69 608.81 264.79 C 612.84 260.35 612.54 253.83 611.70 248.30 C 610.59 241.91 604.82 237.29 598.65 236.18 C 590.23 234.52 581.58 235.53 573.06 235.22 Z" />
<path fill="#ffffff" opacity="1.00" d=" M 1142.14 226.01 C 1141.89 220.41 1147.78 216.47 1152.96 216.74 C 1170.31 216.69 1187.67 216.73 1205.02 216.72 C 1208.71 216.52 1212.86 217.86 1214.64 221.36 C 1216.50 225.13 1216.38 230.23 1213.48 233.46 C 1211.34 235.78 1208.04 236.43 1205.03 236.37 C 1191.31 236.37 1177.60 236.40 1163.88 236.36 C 1163.72 246.08 1163.66 255.81 1163.91 265.53 C 1173.94 265.55 1183.98 265.32 1194.01 265.65 C 1201.58 265.97 1204.79 276.01 1200.49 281.57 C 1198.34 284.53 1194.43 285.22 1191.02 285.27 C 1181.95 285.31 1172.88 285.27 1163.82 285.28 C 1163.72 295.45 1163.77 305.61 1163.80 315.77 C 1177.87 315.81 1191.96 315.73 1206.04 315.81 C 1209.65 315.74 1213.43 317.58 1214.93 321.01 C 1216.52 324.89 1216.24 330.01 1213.01 333.00 C 1210.34 335.45 1206.46 335.56 1203.05 335.57 C 1186.39 335.51 1169.73 335.63 1153.07 335.51 C 1147.82 335.62 1141.69 331.90 1142.14 326.05 C 1142.13 292.70 1142.12 259.35 1142.14 226.01 Z" />
<path fill="#ffffff" opacity="1.00" d=" M 1347.44 217.59 C 1351.12 216.22 1355.15 216.86 1359.00 216.72 C 1368.85 216.92 1378.80 216.08 1388.57 217.81 C 1400.39 219.97 1411.57 226.78 1417.90 237.14 C 1423.91 246.92 1425.70 258.69 1425.53 270.00 C 1425.42 277.66 1425.76 285.33 1425.27 292.98 C 1424.41 302.89 1421.35 313.04 1414.55 320.55 C 1407.12 329.03 1396.13 333.87 1385.02 335.01 C 1376.38 335.99 1367.67 335.40 1359.00 335.56 C 1354.67 335.47 1350.01 336.08 1346.05 333.93 C 1343.24 332.36 1341.20 329.33 1341.50 326.03 C 1341.49 292.71 1341.49 259.39 1341.50 226.07 C 1341.21 222.27 1344.07 218.96 1347.44 217.59 M 1363.19 236.36 C 1363.17 262.84 1363.18 289.32 1363.19 315.79 C 1373.10 315.39 1383.93 317.36 1392.86 311.90 C 1399.98 307.94 1403.53 299.68 1403.69 291.80 C 1403.81 282.23 1403.78 272.65 1403.71 263.07 C 1403.60 253.93 1399.42 244.40 1391.20 239.80 C 1382.65 235.01 1372.54 236.70 1363.19 236.36 Z" />
<path fill="#ffffff" opacity="1.00" d=" M 1441.91 225.95 C 1441.80 220.72 1447.01 216.80 1451.95 216.78 C 1468.96 216.63 1485.97 216.78 1502.99 216.70 C 1505.71 216.74 1508.65 216.60 1511.13 218.01 C 1516.37 220.96 1517.17 228.96 1513.39 233.38 C 1511.04 235.98 1507.32 236.48 1504.01 236.39 C 1490.61 236.31 1477.21 236.49 1463.81 236.29 C 1463.33 245.96 1463.84 255.65 1463.55 265.33 C 1474.00 265.93 1484.52 264.96 1494.95 265.83 C 1502.61 267.08 1504.62 278.28 1498.99 282.97 C 1496.18 285.19 1492.39 285.28 1488.99 285.30 C 1480.56 285.24 1472.14 285.35 1463.72 285.23 C 1463.53 295.42 1463.62 305.61 1463.67 315.81 C 1477.80 315.78 1491.92 315.74 1506.05 315.82 C 1509.45 315.77 1512.91 317.48 1514.51 320.57 C 1516.45 324.47 1516.17 329.80 1512.92 332.94 C 1510.27 335.37 1506.45 335.58 1503.06 335.57 C 1486.40 335.52 1469.74 335.62 1453.09 335.53 C 1447.75 335.70 1441.56 331.98 1441.91 326.05 C 1441.86 292.68 1441.86 259.32 1441.91 225.95 Z" />
</g>
</svg>
