<svg viewBox="0 0 400 300" xmlns="http://www.w3.org/2000/svg"><path d="m185.76 183.14h37.73v9.57h-37.73z" fill="#fff"/><path d="m113.64 145.2s-1.33 31.69 2.23 42.13h16.26a3.92 3.92 0 0 1 3.74 2.77l.88 2.91h-41.35a25.23 25.23 0 0 1 -7.66-7.93c-2.74-4.88-1.06-39.88-1.06-39.88z" fill="#fff"/><path d="m136.75 193.51h-41.35a.6.6 0 0 1 -.27-.07 25.62 25.62 0 0 1 -7.83-8.11c-2.81-5-1.19-38.72-1.12-40.15a.5.5 0 0 1 .5-.48h27a.48.48 0 0 1 .36.16.47.47 0 0 1 .14.37c0 .31-1.26 31 2.09 41.6h15.9a4.37 4.37 0 0 1 4.21 3.13l.88 2.91a.49.49 0 0 1 -.07.44.51.51 0 0 1 -.44.2zm-41.21-1h40.53l-.68-2.26a3.39 3.39 0 0 0 -3.26-2.42h-16.26a.49.49 0 0 1 -.47-.34c-3.35-9.79-2.44-37.49-2.28-41.79h-26c-.58 12.2-1.09 35.42 1 39.14a24.81 24.81 0 0 0 7.42 7.67z" fill="#231f20"/><path d="m88.66 179c0 6.6 2 8.58 4.62 8.58h10.38a3.49 3.49 0 0 1 3.27 2.29l1.15 3.13h-16c-4.09 0-7-6.21-7.13-12.81s0-35 0-35h3.57s.14 27.21.14 33.81z" fill="#231f20"/><path d="m108.08 193.51h-16c-4.61 0-7.5-6.76-7.63-13.3s0-34.72 0-35a.51.51 0 0 1 .5-.5h3.57a.51.51 0 0 1 .5.5c0 .27.13 27.28.13 33.81 0 8.08 3.1 8.08 4.12 8.08h10.38a4 4 0 0 1 3.74 2.62l1.15 3.13a.54.54 0 0 1 -.06.46.51.51 0 0 1 -.4.2zm-22.62-47.81c0 3.83-.12 28.44 0 34.49.14 6.79 3.11 12.32 6.63 12.32h15.27l-.9-2.46a3 3 0 0 0 -2.8-2h-10.38c-3.44 0-5.12-3-5.12-9.08s-.11-29.57-.13-33.31z" fill="#231f20"/><path d="m144.48 71.08 6.26 71.54a5.67 5.67 0 0 1 -5.6 6.4h-85.3a7 7 0 0 1 -6.72-6.4l-6.26-71.54a5.66 5.66 0 0 1 5.6-6.4h85.3a7 7 0 0 1 6.72 6.4z" fill="#231f20"/><path d="m145.14 149.52h-85.3a7.52 7.52 0 0 1 -7.22-6.86l-6.26-71.54a6.49 6.49 0 0 1 1.62-5 6 6 0 0 1 4.48-1.94h85.3a7.51 7.51 0 0 1 7.24 6.82l6.26 71.54a6.46 6.46 0 0 1 -1.63 5 6 6 0 0 1 -4.49 1.98zm-92.68-84.34a5 5 0 0 0 -3.74 1.61 5.49 5.49 0 0 0 -1.36 4.21l6.26 71.54a6.49 6.49 0 0 0 6.22 6h85.3a5 5 0 0 0 3.73-1.62 5.46 5.46 0 0 0 1.37-4.24l-6.24-71.56a6.48 6.48 0 0 0 -6.22-5.94z" fill="#231f20"/><path d="m144.77 70.79 6 68.3a5.41 5.41 0 0 1 -5.34 6.11h-81.43a6.69 6.69 0 0 1 -6.42-6.11l-6-68.3a5.4 5.4 0 0 1 5.34-6.11h81.45a6.69 6.69 0 0 1 6.4 6.11z" fill="#fff"/><path d="m145.4 145.7h-81.4a7.2 7.2 0 0 1 -7-6.56l-6-68.31a6.18 6.18 0 0 1 1.61-4.83 5.74 5.74 0 0 1 4.29-1.86h81.45a7.18 7.18 0 0 1 6.91 6.56l6 68.31a6.16 6.16 0 0 1 -1.56 4.79 5.73 5.73 0 0 1 -4.3 1.9zm-88.5-80.52a4.75 4.75 0 0 0 -3.55 1.53 5.23 5.23 0 0 0 -1.3 4l6 68.31a6.17 6.17 0 0 0 5.95 5.68h81.4a4.75 4.75 0 0 0 3.54-1.53 5.18 5.18 0 0 0 1.3-4l-6-68.31a6.18 6.18 0 0 0 -5.92-5.65z" fill="#231f20"/><path d="m149.74 127.62 1 11.47a5.41 5.41 0 0 1 -5.34 6.11h-81.4a6.69 6.69 0 0 1 -6.42-6.11l-1-11.47z" fill="#fff"/><path d="m145.4 145.7h-81.4a7.2 7.2 0 0 1 -7-6.56l-1-11.47a.52.52 0 0 1 .13-.38.48.48 0 0 1 .37-.17h93.21a.51.51 0 0 1 .5.46l1 11.47a6.16 6.16 0 0 1 -1.56 4.79 5.73 5.73 0 0 1 -4.25 1.86zm-88.33-17.58 1 10.93a6.17 6.17 0 0 0 5.93 5.65h81.4a4.75 4.75 0 0 0 3.54-1.53 5.18 5.18 0 0 0 1.3-4l-1-11z" fill="#231f20"/><ellipse cx="103.9" cy="136.41" fill="#fff" rx="3.7" ry="4.08" transform="matrix(.83069308 -.55673064 .55673064 .83069308 -58.36 80.95)"/><path d="m104.25 140.88a4.84 4.84 0 0 1 -4.65-4.42 4.18 4.18 0 0 1 1.06-3.25 3.88 3.88 0 0 1 2.9-1.26 4.83 4.83 0 0 1 4.64 4.42 4.19 4.19 0 0 1 -1 3.25 3.89 3.89 0 0 1 -2.95 1.26zm-.69-7.93a2.92 2.92 0 0 0 -2.17.93 3.23 3.23 0 0 0 -.79 2.49 3.82 3.82 0 0 0 3.65 3.51 2.87 2.87 0 0 0 2.16-.94 3.2 3.2 0 0 0 .8-2.48 3.82 3.82 0 0 0 -3.65-3.46z" fill="#231f20"/><path d="m58.08 69.24h79.92a3.48 3.48 0 0 1 3.33 3.18l4.21 48.18a2.81 2.81 0 0 1 -2.77 3.19h-79.92a3.49 3.49 0 0 1 -3.33-3.19l-4.21-48.18a2.81 2.81 0 0 1 2.77-3.18z" fill="#231f20"/><path d="m71.52 75.13h-7.94a.5.5 0 1 1 0-1h7.94a.5.5 0 0 1 0 1z" fill="#fff"/><path d="m89.42 75.13h-15.85a.5.5 0 0 1 0-1h15.85a.5.5 0 1 1 0 1z" fill="00ff00"/><path d="m95 78.24h-15.82a.5.5 0 0 1 -.5-.5.5.5 0 0 1 .5-.5h15.82a.5.5 0 0 1 .5.5.5.5 0 0 1 -.5.5z" fill="#00ff00"/><path d="m73.51 78.24h-7.94a.5.5 0 0 1 -.5-.5.5.5 0 0 1 .5-.5h7.94a.5.5 0 0 1 .5.5.5.5 0 0 1 -.5.5z" fill="#fff"/><path d="m75.5 81.34h-7.94a.5.5 0 0 1 -.5-.5.5.5 0 0 1 .5-.5h7.94a.5.5 0 0 1 .5.5.5.5 0 0 1 -.5.5z" fill="#fff"/><path d="m98 81.34h-19.85a.5.5 0 0 1 -.5-.5.5.5 0 0 1 .5-.5h19.85a.5.5 0 0 1 .5.5.5.5 0 0 1 -.5.5z" fill="#00ff00"/><path d="m77.49 84.45h-7.94a.5.5 0 0 1 0-1h7.94a.5.5 0 0 1 0 1z" fill="#fff"/><path d="m102.21 84.45h-23.58a.5.5 0 0 1 0-1h23.58a.5.5 0 0 1 0 1z" fill="#00ff00"/><path d="m75.51 87.56h-7.94a.5.5 0 0 1 -.5-.5.5.5 0 0 1 .5-.5h7.94a.5.5 0 0 1 .5.5.5.5 0 0 1 -.5.5z" fill="#fff"/><path d="m89.92 87.56h-12.79a.51.51 0 0 1 -.5-.5.5.5 0 0 1 .5-.5h12.79a.5.5 0 0 1 .5.5.5.5 0 0 1 -.5.5z" fill="#00ff00"/><path d="m107.59 87.56h-12.78a.5.5 0 0 1 -.5-.5.5.5 0 0 1 .5-.5h12.78a.5.5 0 0 1 .5.5.5.5 0 0 1 -.5.5z" fill="#00ff00"/><path d="m75.64 90.67h-7.94a.5.5 0 0 1 -.5-.5.5.5 0 0 1 .5-.5h7.94a.5.5 0 0 1 .5.5.51.51 0 0 1 -.5.5z" fill="#fff"/><path d="m90.05 90.67h-11.17a.5.5 0 0 1 -.5-.5.5.5 0 0 1 .5-.5h11.17a.5.5 0 0 1 .5.5.51.51 0 0 1 -.5.5z" fill="#00ff00"/><path d="m96.5 90.67h-4.57a.5.5 0 0 1 -.5-.5.5.5 0 0 1 .5-.5h4.57a.5.5 0 0 1 .5.5.51.51 0 0 1 -.5.5z" fill="#00ff00"/><path d="m75.76 93.77h-7.94a.5.5 0 0 1 -.5-.5.51.51 0 0 1 .5-.5h7.94a.5.5 0 0 1 .5.5.5.5 0 0 1 -.5.5z" fill="#fff"/><path d="m94.18 93.77h-16.31a.5.5 0 0 1 -.5-.5.5.5 0 0 1 .5-.5h16.31a.5.5 0 0 1 .5.5.5.5 0 0 1 -.5.5z" fill="#00ff00"/><path d="m104 93.77h-7.9a.5.5 0 0 1 -.5-.5.5.5 0 0 1 .5-.5h7.9a.5.5 0 0 1 .5.5.5.5 0 0 1 -.5.5z" fill="#00ff00"/><path d="m70.3 96.88h-4.22a.5.5 0 1 1 0-1h4.22a.5.5 0 1 1 0 1z" fill="#fff"/><path d="m92.18 96.88h-18.4a.5.5 0 0 1 0-1h18.4a.5.5 0 0 1 0 1z" fill="#00ff00"/><path d="m74.15 100h-7.94a.5.5 0 0 1 -.5-.5.5.5 0 0 1 .5-.5h7.94a.5.5 0 0 1 .5.5.5.5 0 0 1 -.5.5z" fill="#fff"/><path d="m83.35 103.09h-15.84a.5.5 0 0 1 -.5-.5.5.5 0 0 1 .5-.5h15.84a.5.5 0 0 1 .5.5.5.5 0 0 1 -.5.5z" fill="#fff"/><path d="m97 103.09h-11a.5.5 0 0 1 -.5-.5.51.51 0 0 1 .5-.5h11a.5.5 0 0 1 .5.5.5.5 0 0 1 -.5.5z" fill="#00ff00"/><path d="m112.21 103.09h-13.64a.5.5 0 0 1 -.5-.5.51.51 0 0 1 .5-.5h13.64a.5.5 0 0 1 .5.5.5.5 0 0 1 -.5.5z" fill="#00ff00"/><path d="m91.42 106.2h-23.1a.5.5 0 0 1 0-1h23.1a.5.5 0 0 1 0 1z" fill="#fff"/><path d="m103.39 106.2h-10.39a.5.5 0 0 1 0-1h10.39a.5.5 0 0 1 0 1z" fill="#00ff00"/><path d="m136.05 106.2h-30.9a.5.5 0 0 1 0-1h30.9a.5.5 0 0 1 0 1z" fill="#00ff00"/><path d="m79.28 109.31h-10.92a.5.5 0 0 1 -.5-.5.5.5 0 0 1 .5-.5h10.92a.5.5 0 0 1 .5.5.5.5 0 0 1 -.5.5z" fill="#fff"/><path d="m89.5 109.31h-8a.51.51 0 0 1 -.5-.5.5.5 0 0 1 .5-.5h8a.5.5 0 0 1 .5.5.51.51 0 0 1 -.5.5z" fill="#00ff00"/><path d="m99.71 109.31h-8a.51.51 0 0 1 -.5-.5.5.5 0 0 1 .5-.5h8a.5.5 0 0 1 .5.5.51.51 0 0 1 -.5.5z" fill="#00ff00"/><path d="m87.79 112.42h-19.31a.51.51 0 0 1 -.5-.5.5.5 0 0 1 .5-.5h19.31a.5.5 0 0 1 .5.5.5.5 0 0 1 -.5.5z" fill="#fff"/><path d="m99.83 112.42h-9.65a.5.5 0 0 1 -.5-.5.5.5 0 0 1 .5-.5h9.65a.5.5 0 0 1 .5.5.5.5 0 0 1 -.5.5z" fill="#00ff00"/><path d="m116.91 112.42h-14.71a.51.51 0 0 1 -.5-.5.5.5 0 0 1 .5-.5h14.71a.5.5 0 0 1 .5.5.5.5 0 0 1 -.5.5z" fill="#00ff00"/><path d="m133.17 112.42h-14.71a.5.5 0 0 1 -.5-.5.5.5 0 0 1 .5-.5h14.71a.5.5 0 0 1 .5.5.51.51 0 0 1 -.5.5z" fill="#00ff00"/><path d="m85 115.52h-11.51a.5.5 0 0 1 -.5-.5.51.51 0 0 1 .5-.5h11.51a.5.5 0 0 1 .5.5.5.5 0 0 1 -.5.5z" fill="#fff"/><path d="m98.7 115.52h-11.52a.5.5 0 0 1 -.5-.5.5.5 0 0 1 .5-.5h11.52a.51.51 0 0 1 .5.5.5.5 0 0 1 -.5.5z" fill="#00ff00"/><path d="m112.47 115.52h-11.47a.5.5 0 0 1 -.5-.5.5.5 0 0 1 .5-.5h11.52a.5.5 0 0 1 .5.5.5.5 0 0 1 -.55.5z" fill="#00ff00"/><path d="m126.75 115.87h-11.52a.5.5 0 0 1 0-1h11.52a.5.5 0 0 1 0 1z" fill="#00ff00"/><path d="m83.27 118.63h-7.94a.5.5 0 1 1 0-1h7.94a.5.5 0 0 1 0 1z" fill="#fff"/><g fill="#00ff00"><path d="m93.08 118.63h-7.94a.5.5 0 1 1 0-1h7.94a.5.5 0 0 1 0 1z"/><path d="m111.43 118.94-16.43-.31a.5.5 0 0 1 0-1l16.41.31a.5.5 0 0 1 .49.51.49.49 0 0 1 -.47.49z"/><path d="m116.15 84.45h-10.73a.5.5 0 0 1 0-1h10.73a.5.5 0 0 1 0 1z"/><path d="m124.07 84.48a36.43 36.43 0 0 1 -3.81 0 .49.49 0 0 1 -.33-.63.5.5 0 0 1 .56-.34h12.14a.5.5 0 0 1 0 1z"/><path d="m114.19 78.24h-15.59a.51.51 0 0 1 -.5-.5.5.5 0 0 1 .5-.5h15.59a.5.5 0 0 1 .5.5.51.51 0 0 1 -.5.5z"/><path d="m132.83 78.24h-15.51a.5.5 0 0 1 -.5-.5.5.5 0 0 1 .5-.5h15.51a.5.5 0 0 1 .5.5.5.5 0 0 1 -.5.5z"/><path d="m99.69 75.14c-3.16 0-5.36 0-5.46 0a.5.5 0 0 1 -.42-.57.51.51 0 0 1 .54-.42h17.92a.5.5 0 0 1 .5.5.5.5 0 0 1 -.5.5z"/></g><path d="m116.52 75.13a.51.51 0 0 1 -.45-.29.49.49 0 0 1 .24-.66c.13-.06.32-.16 10.88-.05a.5.5 0 0 1 .5.5.52.52 0 0 1 -.51.5c-3.79 0-10-.08-10.54 0z" fill="#fff"/><path d="m102.34 96.88h-8a.5.5 0 0 1 0-1h8a.5.5 0 0 1 0 1z" fill="#00ff00"/><path d="m84 100h-5.88a.5.5 0 0 1 -.5-.5.5.5 0 0 1 .5-.5h5.88a.5.5 0 0 1 .5.5.5.5 0 0 1 -.5.5z" fill="#00ff00"/><path d="m100.32 100h-14a.5.5 0 0 1 -.5-.5.5.5 0 0 1 .5-.5h14a.5.5 0 0 1 .5.5.5.5 0 0 1 -.5.5z" fill="#fff"/><path d="m130.35 100h-27.21a.5.5 0 0 1 -.5-.5.5.5 0 0 1 .5-.5h27.21a.5.5 0 0 1 .5.5.5.5 0 0 1 -.5.5z" fill="#00ff00"/><path d="m279.51 145.2s1.33 31.69-2.24 42.13h-16.27a3.9 3.9 0 0 0 -3.73 2.77l-.87 2.9h41.35a25.23 25.23 0 0 0 7.66-7.93c2.78-4.88 1.06-39.88 1.06-39.88z" fill="#fff"/><path d="m297.75 193.51h-41.35a.48.48 0 0 1 -.4-.2.53.53 0 0 1 -.08-.44l.88-2.91a4.38 4.38 0 0 1 4.21-3.13h15.9c3.36-10.56 2.11-41.29 2.1-41.6a.5.5 0 0 1 .13-.37.52.52 0 0 1 .37-.16h27a.51.51 0 0 1 .5.48c.07 1.43 1.69 35.2-1.12 40.15a25.6 25.6 0 0 1 -7.84 8.11.59.59 0 0 1 -.3.07zm-40.68-1h40.53a24.81 24.81 0 0 0 7.38-7.67c2.11-3.72 1.59-26.94 1-39.14h-25.98c.16 4.3 1.06 32-2.28 41.79a.5.5 0 0 1 -.48.34h-16.24a3.37 3.37 0 0 0 -3.25 2.42z" fill="#231f20"/><path d="m304.49 179c0 6.6-2 8.58-4.63 8.58h-10.37a3.49 3.49 0 0 0 -3.28 2.29l-1.14 3.13h16c4.1 0 7-6.21 7.14-12.81s0-35 0-35h-3.57s-.15 27.21-.15 33.81z" fill="#231f20"/><path d="m301.05 193.51h-16a.49.49 0 0 1 -.41-.21.48.48 0 0 1 -.06-.46l1.14-3.13a4 4 0 0 1 3.75-2.62h10.37c1 0 4.13 0 4.13-8.08 0-6.53.13-33.54.13-33.81a.5.5 0 0 1 .5-.5h3.57a.51.51 0 0 1 .5.5c0 .29.13 28.47 0 35s-3.01 13.31-7.62 13.31zm-15.27-1h15.27c3.52 0 6.5-5.53 6.64-12.32.12-6.05 0-30.66 0-34.49h-2.57c0 3.74-.13 27.27-.13 33.31s-1.68 9.08-5.13 9.08h-10.37a3 3 0 0 0 -2.81 2z" fill="#231f20"/><path d="m248.66 71.08-6.25 71.54a5.67 5.67 0 0 0 5.59 6.38h85.31a7 7 0 0 0 6.72-6.4l6.26-71.54a5.67 5.67 0 0 0 -5.6-6.4h-85.31a7 7 0 0 0 -6.72 6.42z" fill="#231f20"/><path d="m333.31 149.52h-85.31a6 6 0 0 1 -4.47-2 6.45 6.45 0 0 1 -1.62-5l6.26-71.52a7.5 7.5 0 0 1 7.21-6.85h85.31a6 6 0 0 1 4.47 1.94 6.41 6.41 0 0 1 1.62 5l-6.25 71.54a7.53 7.53 0 0 1 -7.22 6.89zm-77.93-84.34a6.49 6.49 0 0 0 -6.22 5.94l-6.26 71.54a5.5 5.5 0 0 0 1.37 4.24 5 5 0 0 0 3.73 1.62h85.31a6.5 6.5 0 0 0 6.22-6l6.26-71.52a5.49 5.49 0 0 0 -1.36-4.24 5 5 0 0 0 -3.74-1.61z" fill="#231f20"/><path d="m248.38 70.79-6 68.3a5.42 5.42 0 0 0 5.35 6.11h81.47a6.68 6.68 0 0 0 6.41-6.11l6-68.3a5.4 5.4 0 0 0 -5.34-6.11h-81.48a6.68 6.68 0 0 0 -6.41 6.11z" fill="#fff"/><path d="m329.2 145.7h-81.45a5.73 5.73 0 0 1 -4.28-1.86 6.16 6.16 0 0 1 -1.56-4.79l6-68.31a7.19 7.19 0 0 1 6.91-6.56h81.46a5.73 5.73 0 0 1 4.25 1.82 6.15 6.15 0 0 1 1.56 4.79l-6 68.31a7.19 7.19 0 0 1 -6.89 6.6zm-80.32-74.87-6 68.31a5.25 5.25 0 0 0 1.3 4 4.75 4.75 0 0 0 3.55 1.53h81.47a6.18 6.18 0 0 0 5.92-5.65l6-68.31a5.18 5.18 0 0 0 -1.29-4 4.75 4.75 0 0 0 -3.55-1.53h-81.49a6.17 6.17 0 0 0 -5.91 5.65z" fill="#231f20"/><path d="m243.41 127.62-1 11.47a5.42 5.42 0 0 0 5.35 6.11h81.44a6.68 6.68 0 0 0 6.41-6.11l1-11.47z" fill="#fff"/><path d="m329.2 145.7h-81.45a5.73 5.73 0 0 1 -4.28-1.86 6.16 6.16 0 0 1 -1.56-4.79l1-11.47a.5.5 0 0 1 .5-.46h93.21a.5.5 0 0 1 .37.17.52.52 0 0 1 .13.38l-1 11.47a7.19 7.19 0 0 1 -6.92 6.56zm-85.33-17.58-1 11a5.25 5.25 0 0 0 1.3 4 4.75 4.75 0 0 0 3.55 1.53h81.48a6.18 6.18 0 0 0 5.92-5.65l.95-10.93z" fill="#231f20"/><ellipse cx="289.24" cy="136.41" fill="#fff" rx="4.08" ry="3.7" transform="matrix(.55673064 -.83069308 .83069308 .55673064 14.89 300.73)"/><path d="m288.9 140.88a3.88 3.88 0 0 1 -2.9-1.26 4.18 4.18 0 0 1 -1.06-3.25 4.84 4.84 0 0 1 4.65-4.42 3.88 3.88 0 0 1 2.9 1.26 4.22 4.22 0 0 1 1.06 3.25 4.85 4.85 0 0 1 -4.65 4.42zm.69-7.93a3.82 3.82 0 0 0 -3.65 3.51 3.19 3.19 0 0 0 .79 2.48 2.9 2.9 0 0 0 2.17.94 3.83 3.83 0 0 0 3.65-3.51 3.2 3.2 0 0 0 -.8-2.48 2.87 2.87 0 0 0 -2.16-.89z" fill="#231f20"/><path d="m335.06 69.24h-79.88a3.46 3.46 0 0 0 -3.33 3.18l-4.22 48.18a2.82 2.82 0 0 0 2.78 3.19h79.88a3.47 3.47 0 0 0 3.33-3.19l4.22-48.18a2.81 2.81 0 0 0 -2.78-3.18z" fill="#231f20"/><path d="m268.54 75.13h-7.94a.5.5 0 0 1 0-1h7.94a.5.5 0 0 1 0 1z" fill="#fff"/><path d="m286.43 75.13h-15.84a.5.5 0 0 1 0-1h15.84a.5.5 0 0 1 0 1z" fill="#00ff00"/><path d="m291.34 78.24h-15.84a.5.5 0 0 1 -.5-.5.5.5 0 0 1 .5-.5h15.84a.5.5 0 0 1 .5.5.5.5 0 0 1 -.5.5z" fill="#00ff00"/><path d="m269.83 78.24h-7.94a.5.5 0 0 1 -.5-.5.5.5 0 0 1 .5-.5h7.94a.5.5 0 0 1 .5.5.5.5 0 0 1 -.5.5z" fill="#fff"/><path d="m271.13 81.34h-7.94a.5.5 0 0 1 -.5-.5.5.5 0 0 1 .5-.5h7.94a.51.51 0 0 1 .5.5.5.5 0 0 1 -.5.5z" fill="#fff"/><path d="m293.61 81.34h-19.84a.5.5 0 0 1 -.5-.5.51.51 0 0 1 .5-.5h19.84a.5.5 0 0 1 .5.5.5.5 0 0 1 -.5.5z" fill="#00ff00"/><path d="m272.42 84.45h-7.94a.5.5 0 0 1 0-1h7.94a.5.5 0 0 1 0 1z" fill="#fff"/><path d="m297.14 84.45h-23.58a.5.5 0 0 1 0-1h23.58a.5.5 0 0 1 0 1z" fill="#00ff00"/><path d="m269.75 87.56h-7.94a.5.5 0 0 1 -.5-.5.5.5 0 0 1 .5-.5h7.94a.5.5 0 0 1 .5.5.51.51 0 0 1 -.5.5z" fill="#fff"/><path d="m284.16 87.56h-12.79a.5.5 0 0 1 -.5-.5.5.5 0 0 1 .5-.5h12.79a.5.5 0 0 1 .5.5.51.51 0 0 1 -.5.5z" fill="#00ff00"/><path d="m301.83 87.56h-12.83a.5.5 0 0 1 -.5-.5.5.5 0 0 1 .5-.5h12.79a.5.5 0 0 1 .5.5.51.51 0 0 1 -.46.5z" fill="#00ff00"/><path d="m269.18 90.67h-7.94a.5.5 0 0 1 -.5-.5.5.5 0 0 1 .5-.5h7.94a.5.5 0 0 1 .5.5.51.51 0 0 1 -.5.5z" fill="#fff"/><path d="m283.59 90.67h-11.17a.5.5 0 0 1 -.5-.5.5.5 0 0 1 .5-.5h11.17a.5.5 0 0 1 .5.5.51.51 0 0 1 -.5.5z" fill="#00ff00"/><path d="m290 90.67h-4.57a.5.5 0 0 1 -.5-.5.5.5 0 0 1 .5-.5h4.57a.5.5 0 0 1 .5.5.51.51 0 0 1 -.5.5z" fill="#00ff00"/><path d="m268.61 93.77h-7.94a.5.5 0 0 1 -.5-.5.5.5 0 0 1 .5-.5h7.94a.51.51 0 0 1 .5.5.5.5 0 0 1 -.5.5z" fill="#fff"/><path d="m287 93.77h-16.29a.5.5 0 0 1 -.5-.5.51.51 0 0 1 .5-.5h16.29a.51.51 0 0 1 .5.5.5.5 0 0 1 -.5.5z" fill="#00ff00"/><path d="m296.89 93.77h-7.89a.5.5 0 0 1 -.5-.5.5.5 0 0 1 .5-.5h7.94a.51.51 0 0 1 .5.5.5.5 0 0 1 -.55.5z" fill="#00ff00"/><path d="m262.45 96.88h-4.22a.5.5 0 0 1 0-1h4.22a.5.5 0 0 1 0 1z" fill="#fff"/><path d="m284.33 96.88h-18.4a.5.5 0 0 1 0-1h18.4a.5.5 0 0 1 0 1z" fill="#00ff00"/><path d="m265.61 100h-7.95a.51.51 0 0 1 -.5-.5.5.5 0 0 1 .5-.5h7.95a.5.5 0 0 1 .5.5.51.51 0 0 1 -.5.5z" fill="#fff"/><path d="m274.11 103.09h-15.84a.5.5 0 0 1 -.5-.5.5.5 0 0 1 .5-.5h15.84a.5.5 0 0 1 .5.5.5.5 0 0 1 -.5.5z" fill="#fff"/><path d="m287.76 103.09h-11a.5.5 0 0 1 -.5-.5.51.51 0 0 1 .5-.5h11a.5.5 0 0 1 .5.5.5.5 0 0 1 -.5.5z" fill="#380c82"/><path d="m303 103.09h-13.66a.5.5 0 0 1 -.5-.5.5.5 0 0 1 .5-.5h13.66a.5.5 0 0 1 .5.5.5.5 0 0 1 -.5.5z" fill="#380c82"/><path d="m281.49 106.2h-23.1a.5.5 0 0 1 0-1h23.1a.5.5 0 0 1 0 1z" fill="#fff"/><path d="m293.45 106.2h-10.39a.5.5 0 0 1 0-1h10.39a.5.5 0 0 1 0 1z" fill="#380c82"/><path d="m326.11 106.2h-30.89a.5.5 0 0 1 0-1h30.89a.5.5 0 0 1 0 1z" fill="#380c82"/><path d="m268.65 109.31h-10.92a.5.5 0 0 1 -.5-.5.5.5 0 0 1 .5-.5h10.92a.5.5 0 0 1 .5.5.5.5 0 0 1 -.5.5z" fill="#fff"/><path d="m278.87 109.31h-8.05a.51.51 0 0 1 -.5-.5.5.5 0 0 1 .5-.5h8.05a.5.5 0 0 1 .5.5.51.51 0 0 1 -.5.5z" fill="
"/><path d="m289.08 109.31h-8.08a.51.51 0 0 1 -.5-.5.5.5 0 0 1 .5-.5h8.05a.5.5 0 0 1 .5.5.51.51 0 0 1 -.47.5z" fill="#00ff00"/><path d="m276.47 112.42h-19.31a.5.5 0 0 1 -.5-.5.5.5 0 0 1 .5-.5h19.31a.5.5 0 0 1 .5.5.5.5 0 0 1 -.5.5z" fill="#fff"/><path d="m288.51 112.42h-9.66a.51.51 0 0 1 -.5-.5.5.5 0 0 1 .5-.5h9.66a.5.5 0 0 1 .5.5.5.5 0 0 1 -.5.5z" fill="#00ff00"/><path d="m305.59 112.42h-14.71a.5.5 0 0 1 -.5-.5.5.5 0 0 1 .5-.5h14.71a.5.5 0 0 1 .5.5.5.5 0 0 1 -.5.5z" fill="#00ff00"/><path d="m321.84 112.42h-14.7a.5.5 0 0 1 -.5-.5.5.5 0 0 1 .5-.5h14.7a.5.5 0 0 1 .5.5.5.5 0 0 1 -.5.5z" fill="#00ff00"/><path d="m273 115.52h-11.53a.5.5 0 0 1 -.5-.5.51.51 0 0 1 .5-.5h11.53a.5.5 0 0 1 .5.5.5.5 0 0 1 -.5.5z" fill="#fff"/><path d="m286.68 115.52h-11.52a.5.5 0 0 1 -.5-.5.5.5 0 0 1 .5-.5h11.52a.51.51 0 0 1 .5.5.5.5 0 0 1 -.5.5z" fill="#00ff00"/><path d="m300.45 115.52h-11.52a.5.5 0 0 1 -.5-.5.51.51 0 0 1 .5-.5h11.52a.5.5 0 0 1 .5.5.5.5 0 0 1 -.5.5z" fill="#00ff00"/><path d="m314.65 115.87h-11.52a.5.5 0 0 1 0-1h11.52a.5.5 0 0 1 0 1z" fill="#00ff00"/><path d="m270.56 118.63h-7.94a.5.5 0 0 1 0-1h7.94a.5.5 0 0 1 0 1z" fill="#fff"/><path d="m280.37 118.63h-7.95a.5.5 0 0 1 0-1h7.95a.5.5 0 0 1 0 1z" fill="#00ff00"/><path d="m298.65 118.94-16.34-.31a.5.5 0 0 1 -.49-.51.47.47 0 0 1 .51-.49l16.34.31a.52.52 0 0 1 .49.51.5.5 0 0 1 -.51.49z" fill="#00ff00"/><path d="m311.08 84.45h-10.73a.5.5 0 0 1 0-1h10.73a.5.5 0 0 1 0 1z" fill="#00ff00"/><path d="m319 84.48a28.69 28.69 0 0 1 -3.84-.06.5.5 0 0 1 .24-1h12.14a.5.5 0 0 1 0 1z" fill="#00ff00"/><path d="m310.51 78.24h-15.59a.51.51 0 0 1 -.5-.5.5.5 0 0 1 .5-.5h15.59a.5.5 0 0 1 .5.5.51.51 0 0 1 -.5.5z" fill="#00ff00"/><path d="m329.15 78.24h-15.51a.5.5 0 0 1 -.5-.5.5.5 0 0 1 .5-.5h15.51a.5.5 0 0 1 .5.5.5.5 0 0 1 -.5.5z" fill="#00ff00"/><path d="m296.75 75.14c-3.18 0-5.41 0-5.51 0a.5.5 0 0 1 -.42-.57.51.51 0 0 1 .54-.42h17.93a.5.5 0 0 1 .5.5.51.51 0 0 1 -.5.5z" fill="#00ff00"/><path d="m313.54 75.13a.49.49 0 0 1 -.46-.3.5.5 0 0 1 .26-.66c.12 0 .34-.15 10.87 0a.5.5 0 0 1 0 1c-3.8 0-10-.08-10.55 0z" fill="#fff"/><path d="m294.49 96.88h-8a.5.5 0 0 1 0-1h8a.5.5 0 0 1 0 1z" fill="#00ff00"/><path d="m275.49 100h-5.91a.5.5 0 0 1 -.5-.5.5.5 0 0 1 .5-.5h5.91a.5.5 0 0 1 .5.5.51.51 0 0 1 -.5.5z" fill="#00ff00"/><path d="m291.78 100h-14a.51.51 0 0 1 -.5-.5.5.5 0 0 1 .5-.5h14a.5.5 0 0 1 .5.5.51.51 0 0 1 -.5.5z" fill="#fff"/><path d="m321.81 100h-27.22a.51.51 0 0 1 -.5-.5.5.5 0 0 1 .5-.5h27.22a.5.5 0 0 1 .5.5.5.5 0 0 1 -.5.5z" fill="#00ff00"/><path d="m107.59 185.46h93.64v7.08h-93.64z" fill="#fff"/><path d="m201.23 193.05h-93.64a.51.51 0 0 1 -.5-.5v-7.09a.51.51 0 0 1 .5-.5h93.64a.5.5 0 0 1 .5.5v7.09a.5.5 0 0 1 -.5.5zm-93.14-1h92.64v-6.05h-92.64z" fill="#231f20"/><path d="m58.22 205.59h20.96v49.8h-20.96z" fill="#fff"/><path d="m79.17 255.89h-21a.5.5 0 0 1 -.5-.5v-49.8a.5.5 0 0 1 .5-.5h21a.5.5 0 0 1 .5.5v49.8a.5.5 0 0 1 -.5.5zm-20.45-1h20v-48.8h-20z" fill="#231f20"/><path d="m319.2 205.59h20.96v49.8h-20.96z" fill="#fff"/><path d="m340.15 255.89h-20.95a.5.5 0 0 1 -.5-.5v-49.8a.5.5 0 0 1 .5-.5h20.95a.5.5 0 0 1 .5.5v49.8a.5.5 0 0 1 -.5.5zm-20.45-1h19.95v-48.8h-19.95z" fill="#231f20"/><path d="m58.22 205.59h20.96v12.89h-20.96z" fill="#231f20"/><path d="m79.17 219h-21a.5.5 0 0 1 -.5-.5v-12.91a.5.5 0 0 1 .5-.5h21a.5.5 0 0 1 .5.5v12.89a.5.5 0 0 1 -.5.52zm-20.45-1h20v-11.91h-20z" fill="#231f20"/><path d="m319.2 205.59h20.96v12.89h-20.96z" fill="#231f20"/><path d="m340.15 219h-20.95a.5.5 0 0 1 -.5-.5v-12.91a.5.5 0 0 1 .5-.5h20.95a.5.5 0 0 1 .5.5v12.89a.5.5 0 0 1 -.5.52zm-20.45-1h19.95v-11.91h-19.95z" fill="#231f20"/><path d="m45.43 193.15h307.5v12.44h-307.5z" fill="#fff"/><path d="m352.93 206.09h-307.5a.51.51 0 0 1 -.5-.5v-12.44a.5.5 0 0 1 .5-.5h307.5a.5.5 0 0 1 .5.5v12.44a.5.5 0 0 1 -.5.5zm-307-1h306.5v-11.44h-306.5z" fill="#231f20"/><path d="m270.7 193.21h28.2c.51 0-3.25-12.13-12.31-12.47s-15.89 12.47-15.89 12.47z" fill="#231f20"/><path d="m298.9 193.71h-28.2a.49.49 0 0 1 -.44-.73c.29-.54 7.1-13.06 16.35-12.74 8.88.33 12.86 11.43 12.83 12.87a.55.55 0 0 1 -.54.6zm-27.33-1h26.83c-.47-2.22-4.37-11.19-11.82-11.47h-.34c-7.24-.01-13.09 8.83-14.67 11.47z" fill="#231f20"/><path d="m165 212.67s-45.11 10.82-46.48 18.8 2.17 23.58 2.17 23.58h116.2s5.52-32.86 0-45.34-71.89 2.96-71.89 2.96z" fill="#231f20"/><path d="m236.93 255.55h-116.2a.5.5 0 0 1 -.49-.39c-.14-.64-3.54-15.79-2.17-23.78 1.41-8.2 45-18.75 46.86-19.19.17 0 16.81-3.89 33.92-6.17 23.18-3.08 36.15-1.91 38.53 3.5 5.52 12.47.27 44.28 0 45.62a.5.5 0 0 1 -.45.41zm-115.8-1h115.37c.61-3.85 5-33.19 0-44.64-2.19-4.91-15.15-5.91-37.5-2.91-17 2.27-33.58 6.1-33.83 6.16-12.46 3-45 12.12-46.1 18.39-1.23 7.09 1.53 20.54 2.06 23z" fill="#231f20"/><path d="m243.24 159.59 8.35 19.18s23.55 4.3 25.22 3.39 4.17-4.1 5.75-5.12 8.06-.12 9.18.68 3.71 4 3.43 5-1.86-.11-1.86-.11 2.36 1.59 1.88 2.85-5.49-2.05-6.42-2.05-3.43 6.94-6.21 9.34-33.75 6.92-36.63 6.24-18.93-23.8-18.93-23.8l3.24-14.58z" fill="#C7813D"/><path d="m246.9 199.57a5.42 5.42 0 0 1 -1.08-.08c-3-.71-17.56-21.63-19.21-24a.52.52 0 0 1 -.08-.4l3.24-14.58a.51.51 0 0 1 .45-.39l13-1a.51.51 0 0 1 .5.3l8.24 18.94c11.14 2 23.49 3.89 24.63 3.39a17.1 17.1 0 0 0 3-2.67 18.87 18.87 0 0 1 2.69-2.43c1.8-1.18 8.54-.17 9.74.69 1 .72 4 4.13 3.62 5.55a1 1 0 0 1 -.56.7 2.16 2.16 0 0 1 .57 2.09.93.93 0 0 1 -.53.52c-.83.32-2.29-.35-4.42-1.4a13.47 13.47 0 0 0 -1.88-.84 17 17 0 0 0 -1.64 2.77c-1.19 2.24-2.67 5-4.31 6.44-1.85 1.59-13.57 3.6-18.52 4.39-6.69 1.03-14.41 2.01-17.45 2.01zm-19.35-24.48c6.18 8.89 16.55 23 18.5 23.42 3 .71 33.71-4 36.18-6.13 1.49-1.28 2.92-4 4.07-6.15 1.31-2.46 1.8-3.31 2.47-3.31a7.35 7.35 0 0 1 2.38 1c1 .51 3.18 1.57 3.62 1.37.18-.53-.84-1.57-1.65-2.15l-.12-.14a.5.5 0 0 1 .57-.82l.09.07a1.74 1.74 0 0 0 1 .38c.18-.66-2-3.63-3.22-4.52-.93-.67-7.21-1.59-8.62-.67a19.82 19.82 0 0 0 -2.52 2.29 17.53 17.53 0 0 1 -3.26 2.85c-1.74 1-21.59-2.61-25.55-3.34a.5.5 0 0 1 -.37-.29l-8.2-18.85-12.26 1z" fill="#231f20"/><path d="m146.25 161.07-6 14.69s-17.93-10.21-22.71-10.93c-13.56-2.06-18.57 6.6-18.8 8.08s13.1-.11 13.1-.11-5.62 2-5.12 4.44c.27 1.37 6.6-1.93 7.63-1.59s28.16 21.35 37.73 23.35 31.53-45.82 31.53-45.82" fill="#C7813D"/><path d="m152.65 199.58a3.08 3.08 0 0 1 -.68-.07c-7.54-1.61-25.3-14.43-33.83-20.6-2-1.43-3.71-2.67-4-2.8a12.86 12.86 0 0 0 -2.81.85c-2.44.88-4 1.38-4.71 1a.84.84 0 0 1 -.42-.58c-.31-1.54 1.16-2.83 2.66-3.72-4.1.41-9.56.76-10.43-.15a.71.71 0 0 1 -.21-.63c.21-1.4 5.22-10.65 19.36-8.51 4.43.67 19.41 9 22.4 10.72l5.77-14.17a.5.5 0 1 1 .93.37l-6 14.7a.52.52 0 0 1 -.3.28.49.49 0 0 1 -.41 0c-.18-.11-17.91-10.18-22.55-10.88-13.38-2-17.63 6.28-18.16 7.52 1.14.45 7.21.09 12.48-.54a.5.5 0 0 1 .55.39.49.49 0 0 1 -.32.58c-1.33.47-5 2.16-4.82 3.8.54.14 2.67-.63 3.83-1 1.91-.68 2.93-1 3.49-.85a42.81 42.81 0 0 1 4.22 2.93c7.81 5.65 26.12 18.86 33.45 20.44 7.54 1.6 24.92-32.33 31-45.54a.49.49 0 0 1 .66-.25.51.51 0 0 1 .25.66c-.87 1.81-21.29 46.05-31.4 46.05z" fill="#231f20"/><path d="m204.73 96a8.46 8.46 0 0 0 2.9-1.86 13.53 13.53 0 0 0 2.75-4.14 44.84 44.84 0 0 0 3.4-25.15c-.53-3.68-1.28-8.8-3.48-11.89a8.31 8.31 0 0 0 -4.16-2.9c-.45-.13-5.15.15-4.71.67a17.83 17.83 0 0 0 -14.2-6.11c-4.52.18-10 2.15-12.93 5.75-1.2 1.48-1.64 2.64-3.57 3.33a10.78 10.78 0 0 1 -7.78-.36c-.6-.25-4.5-1.62-4.48-2.16a13.48 13.48 0 0 0 7.61 12.55 18.79 18.79 0 0 1 -8.19-1.29 14.39 14.39 0 0 0 14.88 8.56c2 2.84 4.64 5.25 6.61 8.25 2.09 3.18 4.1 6.49 6.87 9.14 4.37 4.14 12.24 9.98 18.48 7.61z" fill="#362E29"/><path d="m201.64 97.06c-6.24 0-12.87-5.6-15.73-8.34a43.38 43.38 0 0 1 -6.19-8.07l-.72-1.15a42.53 42.53 0 0 0 -3.6-4.5c-1-1.11-2-2.27-2.86-3.49a14.86 14.86 0 0 1 -15.12-8.87.5.5 0 0 1 .65-.65 18.45 18.45 0 0 0 6.14 1.28 14 14 0 0 1 -6.21-12.11.49.49 0 0 1 .52-.48.5.5 0 0 1 .48.32 17 17 0 0 0 3.59 1.6l.6.24a10.29 10.29 0 0 0 7.42.35 5.06 5.06 0 0 0 2.57-2.19c.22-.31.46-.63.74-1 3.13-3.86 8.93-5.76 13.29-5.94a18.61 18.61 0 0 1 14.27 5.94 16.54 16.54 0 0 1 4.8-.44 8.79 8.79 0 0 1 4.43 3.09c2.28 3.2 3 8.35 3.57 12.11a45.6 45.6 0 0 1 -3.45 25.43 14.18 14.18 0 0 1 -2.83 4.33 9.15 9.15 0 0 1 -3.08 2 9.15 9.15 0 0 1 -3.28.54zm-28.87-26.59a.51.51 0 0 1 .41.21c.9 1.27 2 2.48 3 3.66a44 44 0 0 1 3.62 4.66l.76 1.16a43.67 43.67 0 0 0 6 7.89c3.23 3.09 11.45 10 18 7.54a8.09 8.09 0 0 0 2.74-1.75 13.1 13.1 0 0 0 2.63-4 44.49 44.49 0 0 0 3.37-24.86c-.53-3.66-1.25-8.67-3.4-11.68a7.76 7.76 0 0 0 -3.9-2.76 18.07 18.07 0 0 0 -4.1.37.43.43 0 0 1 -.15.2.48.48 0 0 1 -.7-.06 17.31 17.31 0 0 0 -13.79-5.93c-4.13.17-9.62 2-12.56 5.57-.26.32-.49.63-.7.92a6 6 0 0 1 -3.09 2.56 11.36 11.36 0 0 1 -8.15-.37c-.1 0-.3-.12-.57-.22a30.47 30.47 0 0 1 -3.19-1.36 13 13 0 0 0 7.32 11.06.5.5 0 0 1 -.18 1 19.23 19.23 0 0 1 -7.26-.91 13.84 13.84 0 0 0 13.85 7.15z" fill="#231f20"/><path d="m172.31 81.44s-5.2 10.11-3.7 11.92 5.65 0 5.65 0" fill="#C7813D"/><path d="m170.8 94.68a3.21 3.21 0 0 1 -2.57-1c-1.63-2 2.74-10.73 3.64-12.47a.5.5 0 0 1 .89.46c-2.49 4.83-4.57 10.4-3.76 11.33 1 1.26 4 .36 5.06-.09a.5.5 0 0 1 .4.92 10.67 10.67 0 0 1 -3.66.85z" fill="#231f20"/><path d="m172.28 68.84c-3.61 3.67-1.71 10.39-1.19 14.84q1.09 9.38 2.63 18.7c.64 4 10.93 2.91 12.61 1.53l.11 15.85 21.91-3.71-3.53-19.8s-7 .81-11.89-6.83-6.24-25.28-6.24-25.28-10.88 1.12-14.41 4.7z" fill="#C7813D"/><path d="m186.44 120.26a.55.55 0 0 1 -.33-.12.5.5 0 0 1 -.17-.38l-.1-15c-2.22.89-7.25 1.36-10.16.26a3.36 3.36 0 0 1 -2.46-2.54c-1-6.19-1.9-12.49-2.63-18.73-.09-.74-.21-1.55-.34-2.4-.67-4.28-1.5-9.61 1.68-12.84 3.61-3.67 14.25-4.8 14.71-4.84a.48.48 0 0 1 .37.11.51.51 0 0 1 .17.35c0 .17 1.4 17.59 6.17 25 4.66 7.27 11.14 6.64 11.41 6.61a.51.51 0 0 1 .55.41l3.54 19.85a.52.52 0 0 1 -.09.38.46.46 0 0 1 -.32.2l-21.92 3.71zm-.11-16.85a.52.52 0 0 1 .21 0 .49.49 0 0 1 .29.45l.1 15.27 20.84-3.53-3.37-18.82c-1.68 0-7.56-.33-11.89-7.09-4.49-7-6-22-6.28-25-2.16.27-10.66 1.51-13.59 4.49s-2 7.93-1.41 12c.14.87.27 1.69.36 2.45.72 6.22 1.61 12.5 2.62 18.68.12.76.74 1.35 1.82 1.76 3.12 1.17 8.88.36 10-.54a.48.48 0 0 1 .3-.12z" fill="#231f20"/><path d="m173.36 97.7s5.17 2.46 7.21-2.85" fill="#C7813D"/><path d="m176 98.77a7.23 7.23 0 0 1 -2.88-.62.5.5 0 1 1 .43-.9 5.75 5.75 0 0 0 4.06.22 4.53 4.53 0 0 0 2.47-2.8.51.51 0 0 1 .65-.28.5.5 0 0 1 .27.61 5.56 5.56 0 0 1 -3 3.38 5.47 5.47 0 0 1 -2 .39z" fill="#231f20"/><path d="m184.76 84.14a8.47 8.47 0 0 1 1.24-4.48 12.09 12.09 0 0 1 2-3.09 4.11 4.11 0 0 1 3.26-1.4 3.84 3.84 0 0 1 2.67 1.67 7.37 7.37 0 0 1 1.12 3 13.53 13.53 0 0 1 -4.9 12.59l.31-.41" fill="#C7813D"/><path d="m190.15 93a.49.49 0 0 1 -.4-.79l.31-.42a.49.49 0 0 1 .4-.2 13.08 13.08 0 0 0 4.09-11.59 6.63 6.63 0 0 0 -1-2.82 3.36 3.36 0 0 0 -2.31-1.46 3.61 3.61 0 0 0 -2.85 1.24 11.56 11.56 0 0 0 -1.87 3 8.28 8.28 0 0 0 -1.24 4.22.49.49 0 0 1 -.45.54.51.51 0 0 1 -.54-.45 9 9 0 0 1 1.33-4.76 12.53 12.53 0 0 1 2-3.21 4.57 4.57 0 0 1 3.67-1.55 4.28 4.28 0 0 1 3 1.88 7.71 7.71 0 0 1 1.21 3.23 14.1 14.1 0 0 1 -5.08 13.07.5.5 0 0 1 -.27.07z" fill="#231f20"/><ellipse cx="173.62" cy="76.37" fill="#231f20" rx=".88" ry="2.25" transform="matrix(.99850822 -.05460164 .05460164 .99850822 -3.91 9.59)"/><path d="m186.33 103.91a26.17 26.17 0 0 0 10.24-3.18s-2.06 9.73-9.87 11z" fill="#231f20"/><path d="m186.7 112.2a.46.46 0 0 1 -.32-.11.47.47 0 0 1 -.18-.36l-.37-7.8a.5.5 0 0 1 .46-.52 26.11 26.11 0 0 0 10-3.11.5.5 0 0 1 .54 0 .49.49 0 0 1 .2.51c-.08.42-2.22 10.08-10.29 11.37zm.15-7.84.32 6.75c5.44-1.21 7.82-6.92 8.6-9.36a27.25 27.25 0 0 1 -8.92 2.61z" fill="#231f20"/><path d="m240.72 212.67s-1.08-73.2-12.06-90-39.41-20.67-53.05-10.67-10.61 100.67-10.61 100.67z" fill="#00ff00"/><path d="m185.1 107.7s-16.27 1.36-25.67 9.15-19.18 47.64-19.18 47.64l30 6.76z" fill="#00ff00"/><path d="m165.84 187.43a.52.52 0 0 1 -.49-.51c.35-21.5 1-57.66 1.26-58.28a.51.51 0 0 1 .67-.25.5.5 0 0 1 .27.59c-.22 1.52-.88 38.53-1.2 58a.5.5 0 0 1 -.51.45z" fill="#"/><path d="m217.35 112.26s13.69 1.55 20.93 16.58c3.93 8.16 14 34.49 14 34.49l-30.21 3.48z" fill="#00ff00"/><path d="m244.25 192.55h-47.59a10.56 10.56 0 0 1 -10.47-11.93l5.22-40.05a10.55 10.55 0 0 1 10.47-9.2h47.59a10.56 10.56 0 0 1 10.47 11.92l-5.22 40.06a10.57 10.57 0 0 1 -10.47 9.2z" fill="#231f20"/><path d="m244.25 193.05h-47.59a11.06 11.06 0 0 1 -11-12.49l5.22-40.06a11.09 11.09 0 0 1 11-9.63h47.59a11.06 11.06 0 0 1 11 12.49l-5.23 40.06a11.08 11.08 0 0 1 -10.99 9.63zm-42.37-61.18a10.09 10.09 0 0 0 -10 8.76l-5.22 40.06a10.08 10.08 0 0 0 10 11.36h47.59a10.09 10.09 0 0 0 10-8.76l5.22-40.06a10 10 0 0 0 -10-11.36z" fill="#231f20"/><path d="m213.69 166.81s5.69 6.67 5.92 9.18-11.26 59.92-11.26 59.92l16.27-4.56s11.25-53.54 10.18-57.64-7.78-9.34-7.78-9.34z" fill="#231f20"/><path d="m208.35 236.41a.55.55 0 0 1 -.34-.13.54.54 0 0 1 -.15-.47c4.62-23.05 11.42-58 11.25-59.78s-4.25-7.07-5.8-8.9a.5.5 0 0 1 .29-.81l13.33-2.44a.49.49 0 0 1 .39.09c.28.22 6.87 5.4 8 9.61s-9.72 55.69-10.18 57.88a.49.49 0 0 1 -.35.38l-16.27 4.55a.34.34 0 0 1 -.17.02zm6.27-69.26c1.51 1.82 5.29 6.6 5.49 8.79.22 2.42-9.66 52-11.11 59.27l15.2-4.21c3.16-15.08 11-53.87 10.12-57.12-.92-3.53-6.39-8.09-7.44-8.94z" fill="#231f20"/><rect fill="#231f20" height="25.63" rx="6.76" width="96.36" x="152.08" y="229.42"/><path d="m241.67 255.55h-82.83a7.27 7.27 0 0 1 -7.26-7.26v-12.11a7.26 7.26 0 0 1 7.26-7.26h82.83a7.26 7.26 0 0 1 7.26 7.26v12.11a7.27 7.27 0 0 1 -7.26 7.26zm-82.83-25.63a6.26 6.26 0 0 0 -6.26 6.26v12.11a6.26 6.26 0 0 0 6.26 6.26h82.83a6.26 6.26 0 0 0 6.26-6.26v-12.11a6.26 6.26 0 0 0 -6.26-6.26z" fill="#231f20"/><path d="m152 249.74a.5.5 0 0 1 -.5-.5v-12.74a7.72 7.72 0 0 1 7.57-7.69l50.34-.81 8.92-45.95c0-.11 2.15-10.42-3.6-13.24a.49.49 0 0 1 -.23-.66.5.5 0 0 1 .67-.23c6.44 3.16 4.23 13.88 4.13 14.33l-9 46.33a.49.49 0 0 1 -.48.4l-50.74.82a6.73 6.73 0 0 0 -6.59 6.7v12.74a.5.5 0 0 1 -.49.5z" fill="#fff"/><path d="m241.85 229.92-16.79-.12a.47.47 0 0 1 -.38-.19.5.5 0 0 1 -.11-.41l3.38-16.63a.52.52 0 0 1 .59-.39.51.51 0 0 1 .39.59l-3.26 16 16.19.11a.5.5 0 0 1 0 1z" fill="#fff"/><path d="m234.8 175.85a.49.49 0 0 1 -.46-.53 8.43 8.43 0 0 0 -4-7.73.51.51 0 0 1 -.19-.68.5.5 0 0 1 .68-.19 9.43 9.43 0 0 1 4.51 8.67.5.5 0 0 1 -.54.46z" fill="#fff"/><path d="m76.47 185.88h-3.8a.5.5 0 0 1 0-1h3.8a3.44 3.44 0 1 0 0-6.87.51.51 0 0 1 -.5-.5.5.5 0 0 1 .5-.5 4.44 4.44 0 1 1 0 8.87z" fill="#d1d3d4"/><path d="m83.68 187.91c0 2.43-8.25 4.4-18.42 4.4s-18.43-2-18.43-4.4z" fill="#fff"/><path d="m65.26 192.81c-9.18 0-18.93-1.72-18.93-4.9a.5.5 0 0 1 .5-.5h36.85a.5.5 0 0 1 .5.5c0 3.18-9.75 4.9-18.92 4.9zm-17.73-4.4c1.2 1.56 7.72 3.4 17.73 3.4s16.53-1.81 17.74-3.4z" fill="#d1d3d4"/><path d="m74.7 187.91h-18.89l-3.61-14.09h26.11z" fill="#fff"/><path d="m74.7 188.41h-18.89a.49.49 0 0 1 -.48-.38l-3.61-14.09a.51.51 0 0 1 .09-.43.5.5 0 0 1 .4-.19h26.1a.51.51 0 0 1 .4.19.54.54 0 0 1 .09.43l-3.61 14.06a.51.51 0 0 1 -.49.41zm-18.5-1h18.12l3.35-13.09h-24.82z" fill="#d1d3d4"/><path d="m310.67 185.23h40.33v7.08h-40.33z" fill="#fff" transform="matrix(-1 0 0 -1 661.67 377.55)"/><path d="m351 192.82h-40.33a.5.5 0 0 1 -.5-.5v-7.09a.5.5 0 0 1 .5-.5h40.33a.51.51 0 0 1 .5.5v7.09a.51.51 0 0 1 -.5.5zm-39.83-1h39.33v-6.09h-39.33z" fill="#d1d3d4"/><path d="m316.31 178.15h46.26v7.08h-46.26z" fill="#fff" transform="matrix(-1 0 0 -1 678.87 363.38)"/><path d="m362.57 185.73h-46.26a.5.5 0 0 1 -.5-.5v-7.08a.5.5 0 0 1 .5-.5h46.26a.5.5 0 0 1 .5.5v7.08a.5.5 0 0 1 -.5.5zm-45.76-1h45.26v-6.08h-45.26z" fill="#d1d3d4"/><path d="m312.17 171.06h46.26v7.08h-46.26z" fill="" transform="matrix(-1 0 0 -1 670.6 349.21)"/><path d="m358.43 178.65h-46.26a.5.5 0 0 1 -.5-.5v-7.09a.5.5 0 0 1 .5-.5h46.26a.5.5 0 0 1 .5.5v7.09a.5.5 0 0 1 -.5.5zm-45.76-1h45.26v-6.09h-45.26z" fill="#d1d3d4"/><path d="m335.3 185.23h21.19v7.08h-21.19z" fill="#231f20" transform="matrix(-1 0 0 -1 691.79 377.55)"/><path d="m356.49 192.82h-21.19a.5.5 0 0 1 -.5-.5v-7.09a.5.5 0 0 1 .5-.5h21.19a.5.5 0 0 1 .5.5v7.09a.5.5 0 0 1 -.5.5zm-20.69-1h20.2v-6.09h-20.2z" fill="#231f20"/><path d="m338.26 178.15h24.3v7.08h-24.3z" fill="#231f20" transform="matrix(-1 0 0 -1 700.83 363.38)"/><path d="m362.57 185.73h-24.31a.5.5 0 0 1 -.5-.5v-7.08a.5.5 0 0 1 .5-.5h24.31a.5.5 0 0 1 .5.5v7.08a.5.5 0 0 1 -.5.5zm-23.81-1h23.31v-6.08h-23.31z" fill="#231f20"/><path d="m336.09 171.06h24.3v7.08h-24.3z" fill="#231f20" transform="matrix(-1 0 0 -1 696.48 349.21)"/><path d="m360.39 178.65h-24.3a.5.5 0 0 1 -.5-.5v-7.09a.5.5 0 0 1 .5-.5h24.3a.5.5 0 0 1 .5.5v7.09a.5.5 0 0 1 -.5.5zm-23.8-1h23.3v-6.09h-23.3z" fill="#231f20"/></svg>