<?xml version="1.0" encoding="UTF-8" ?>
<!DOCTYPE svg PUBLIC "-//W3C//DTD SVG 1.1//EN" "http://www.w3.org/Graphics/SVG/1.1/DTD/svg11.dtd">
<svg width="80px" height="80px" viewBox="0 0 512 512" version="1.1" xmlns="http://www.w3.org/2000/svg">
<g id="#000000ff">
<path fill="#F8F8F8" opacity="1.00" d=" M 253.56 0.00 L 258.36 0.00 C 276.89 0.69 295.47 3.67 312.82 10.38 C 362.19 28.30 401.37 71.42 414.95 122.11 C 424.12 155.28 422.70 191.36 410.55 223.60 C 405.91 236.08 399.68 247.97 392.16 258.96 C 375.24 285.37 358.37 311.81 341.50 338.26 C 367.74 342.62 393.79 348.78 418.63 358.42 C 436.13 365.55 453.52 374.45 466.62 388.38 C 476.06 398.38 482.24 412.16 480.75 426.09 C 479.68 438.95 472.42 450.46 463.20 459.14 C 447.19 473.74 427.12 482.88 406.87 489.99 C 360.46 505.53 311.30 510.95 262.57 512.00 L 252.37 512.00 C 218.07 511.60 183.72 508.80 150.06 502.02 C 123.89 496.63 97.84 489.23 74.08 476.78 C 61.50 470.05 49.44 461.63 40.81 450.09 C 32.73 439.00 28.63 424.32 32.54 410.87 C 36.14 397.01 46.23 385.89 57.56 377.63 C 75.16 364.84 95.67 356.67 116.44 350.60 C 134.08 344.96 152.30 341.40 170.53 338.30 C 154.08 312.48 137.66 286.64 121.14 260.86 C 115.14 252.21 109.80 243.08 105.55 233.43 C 88.23 195.42 86.49 150.74 100.40 111.40 C 116.06 65.82 152.65 27.89 197.80 10.92 C 215.52 3.87 234.56 0.72 253.56 0.00 M 220.04 35.03 C 194.48 41.98 171.30 56.98 154.05 77.04 C 137.07 96.68 125.89 121.31 122.45 147.06 C 117.43 180.83 126.15 216.29 145.97 244.05 C 182.75 301.50 219.32 359.09 256.00 416.61 C 293.35 358.07 330.67 299.51 368.08 241.00 C 386.48 214.04 394.19 180.14 389.67 147.85 C 386.25 121.60 374.89 96.44 357.43 76.53 C 343.36 60.29 325.36 47.45 305.37 39.55 C 278.44 28.78 247.96 27.19 220.04 35.03 M 99.23 388.29 C 87.80 393.42 76.40 399.47 67.66 408.64 C 63.42 413.15 59.55 419.51 61.75 425.89 C 65.00 435.52 73.93 441.61 82.12 446.85 C 104.65 460.12 130.19 467.17 155.59 472.56 C 181.39 477.76 207.65 480.49 233.94 481.55 C 280.23 483.06 326.96 480.07 372.06 469.04 C 394.32 463.27 416.79 456.10 435.87 442.87 C 442.25 438.07 449.07 432.29 450.69 424.07 C 451.85 417.43 447.30 411.60 442.93 407.17 C 432.04 396.75 418.12 390.27 404.26 384.79 C 378.46 374.89 351.14 369.79 323.85 366.04 C 305.46 394.64 287.31 423.40 268.97 452.04 C 265.91 457.04 259.95 460.19 254.07 459.30 C 249.47 458.79 245.45 455.86 243.01 452.01 C 224.68 423.38 206.53 394.65 188.16 366.05 C 157.86 370.20 127.42 376.03 99.23 388.29 Z" />
<path fill="#F8F8F8" opacity="1.00" d=" M 245.58 91.78 C 259.87 89.76 274.72 91.97 287.77 98.13 C 304.79 106.07 318.61 120.66 325.56 138.11 C 331.66 153.19 332.61 170.29 328.24 185.96 C 324.46 199.75 316.57 212.36 305.89 221.87 C 292.87 233.63 275.57 240.51 258.03 240.91 C 240.61 241.45 223.08 235.61 209.48 224.72 C 199.08 216.45 190.86 205.43 186.10 193.01 C 178.73 174.22 179.48 152.44 188.15 134.20 C 198.58 111.62 220.90 95.04 245.58 91.78 M 254.17 121.18 C 241.79 121.62 229.72 127.49 221.80 137.02 C 214.23 145.76 210.39 157.58 211.27 169.10 C 211.99 181.48 218.29 193.37 228.02 201.03 C 236.63 208.06 248.01 211.56 259.08 210.73 C 270.99 210.04 282.47 204.20 290.13 195.07 C 297.93 186.10 301.81 173.86 300.65 162.03 C 299.73 149.98 293.49 138.48 284.02 131.00 C 275.73 124.21 264.87 120.73 254.17 121.18 Z" />
</g>
</svg>
