<?xml version="1.0" encoding="UTF-8"?>
<svg xmlns="http://www.w3.org/2000/svg" xmlns:xlink="http://www.w3.org/1999/xlink" viewBox="0 0 96 96" width="96px" height="96px">
<g id="surface5416764">
<path style=" stroke:none;fill-rule:nonzero;fill:rgb(95.294118%,30.980393%,16.078432%);fill-opacity:1;" d="M 89.84375 42.414062 L 53.585938 6.15625 C 52.050781 4.613281 50.023438 3.839844 48 3.839844 C 45.976562 3.839844 43.949219 4.613281 42.414062 6.15625 L 35.242188 13.328125 L 44.113281 22.199219 C 47.0625 20.46875 50.902344 20.84375 53.429688 23.371094 C 55.957031 25.898438 56.324219 29.738281 54.59375 32.675781 L 63.316406 41.398438 C 66.261719 39.667969 70.101562 40.042969 72.628906 42.570312 C 75.628906 45.570312 75.628906 50.429688 72.628906 53.429688 C 69.628906 56.429688 64.769531 56.429688 61.769531 53.429688 C 59.242188 50.902344 58.867188 47.0625 60.601562 44.113281 L 51.878906 35.390625 C 51.253906 35.761719 50.601562 36.03125 49.921875 36.203125 L 49.921875 59.789062 C 53.226562 60.644531 55.679688 63.621094 55.679688 67.199219 C 55.679688 71.445312 52.246094 74.878906 48 74.878906 C 43.753906 74.878906 40.320312 71.445312 40.320312 67.199219 C 40.320312 63.621094 42.773438 60.644531 46.078125 59.789062 L 46.078125 36.203125 C 44.796875 35.871094 43.574219 35.234375 42.570312 34.230469 C 40.042969 31.703125 39.675781 27.863281 41.40625 24.921875 L 32.527344 16.042969 L 6.15625 42.414062 C 3.066406 45.496094 3.066406 50.503906 6.15625 53.585938 L 42.414062 89.84375 C 43.949219 91.386719 45.976562 92.160156 48 92.160156 C 50.023438 92.160156 52.050781 91.386719 53.585938 89.84375 L 89.84375 53.585938 C 92.933594 50.503906 92.933594 45.496094 89.84375 42.414062 Z M 89.84375 42.414062 "/>
</g>
</svg>
