<?xml version="1.0" encoding="UTF-8" ?>
<!DOCTYPE svg PUBLIC "-//W3C//DTD SVG 1.1//EN" "http://www.w3.org/Graphics/SVG/1.1/DTD/svg11.dtd">
<svg width="80px" height="80px" viewBox="0 0 512 512" version="1.1" xmlns="http://www.w3.org/2000/svg">
<g id="#000000ff">
<path fill="#F8F8F8" opacity="1.00" d=" M 282.31 0.00 L 284.90 0.00 C 291.29 1.39 297.69 2.73 304.09 4.07 C 326.92 9.67 349.07 18.06 369.77 29.21 C 416.86 54.66 456.37 93.99 481.94 141.02 C 496.54 167.77 506.46 197.03 511.49 227.07 C 512.21 233.16 508.36 239.39 502.66 241.58 C 495.45 244.65 485.97 240.75 483.53 233.17 C 480.81 224.53 480.05 215.39 477.25 206.75 C 469.94 180.04 458.07 154.55 442.16 131.87 C 407.40 81.68 353.60 44.80 293.88 31.65 C 288.89 30.53 283.81 29.78 278.89 28.34 C 272.16 26.36 267.76 18.92 269.09 12.05 C 270.10 5.61 275.86 0.55 282.31 0.00 Z" />
<path fill="#F8F8F8" opacity="1.00" d=" M 60.90 45.90 C 71.98 35.25 87.33 28.07 102.95 29.93 C 116.68 31.14 128.45 39.51 137.82 49.10 C 155.81 66.80 173.38 84.91 191.33 102.65 C 197.43 109.05 203.60 115.74 207.01 124.04 C 212.50 136.15 212.28 150.59 206.52 162.55 C 203.46 169.63 198.23 175.40 193.13 181.05 C 182.19 192.17 171.27 203.30 159.89 213.97 C 168.01 231.60 179.09 247.68 191.32 262.70 C 214.81 291.17 241.76 317.05 272.60 337.46 C 280.25 342.81 288.78 346.70 297.00 351.08 C 306.71 341.43 316.40 331.77 326.09 322.10 C 333.01 315.24 340.24 308.22 349.38 304.42 C 361.09 299.17 374.98 299.14 386.69 304.39 C 396.04 308.31 403.19 315.76 410.25 322.77 C 426.71 339.30 443.16 355.84 459.64 372.35 C 463.70 376.30 467.42 380.58 470.94 385.02 C 477.68 394.13 481.27 405.62 480.45 416.96 C 479.83 428.02 474.80 438.44 467.82 446.88 C 457.78 458.79 445.61 468.69 435.29 480.34 C 429.19 487.23 422.62 493.82 414.84 498.81 C 402.04 507.33 386.71 511.40 371.45 512.00 L 365.46 512.00 C 333.33 510.42 302.28 500.27 273.34 486.69 C 201.11 453.35 137.53 402.14 88.23 339.81 C 62.77 307.96 40.43 273.40 23.99 236.01 C 14.35 214.13 6.21 191.38 2.31 167.73 C -0.47 148.13 -1.10 127.28 6.76 108.70 C 10.80 98.85 17.07 90.03 24.56 82.51 C 36.67 70.30 48.71 58.03 60.90 45.90 M 93.42 59.51 C 88.00 60.99 83.52 64.63 79.64 68.56 C 68.17 80.11 56.58 91.55 45.15 103.13 C 37.94 110.46 32.53 119.75 30.87 129.99 C 27.81 147.32 30.83 165.00 35.25 181.82 C 49.92 232.57 77.18 278.84 109.82 320.04 C 133.12 349.66 159.67 376.75 189.07 400.33 C 218.07 423.70 249.93 443.48 283.59 459.43 C 310.43 471.85 339.04 482.32 368.95 482.91 C 383.91 483.19 398.91 477.21 408.98 466.02 C 419.61 453.99 431.40 443.08 442.64 431.62 C 447.28 426.85 451.45 420.90 451.52 413.98 C 451.54 407.04 447.22 401.11 442.51 396.43 C 422.70 376.59 402.87 356.78 383.05 336.96 C 378.88 332.68 373.23 329.22 367.05 329.64 C 360.79 329.98 355.41 333.77 351.12 338.07 C 338.92 350.24 326.75 362.43 314.55 374.60 C 310.72 378.51 305.62 381.32 300.10 381.75 C 294.50 382.49 289.09 380.27 284.34 377.55 C 277.51 373.70 270.37 370.44 263.66 366.40 C 232.41 346.96 204.66 322.25 180.31 294.74 C 161.46 273.48 144.10 250.41 132.63 224.26 C 130.03 218.96 128.84 212.84 129.94 206.99 C 131.31 200.67 136.10 195.94 140.71 191.74 C 151.50 181.89 161.62 171.33 171.98 161.03 C 176.86 156.15 181.91 150.29 182.01 142.99 C 182.10 135.41 176.84 129.28 171.76 124.26 C 152.33 105.00 133.25 85.42 113.78 66.21 C 108.58 60.96 100.85 57.34 93.42 59.51 Z" />
<path fill="#F8F8F8" opacity="1.00" d=" M 275.31 93.46 C 280.04 92.05 284.85 93.82 289.50 94.67 C 331.36 103.56 369.02 129.65 392.74 165.17 C 405.93 184.53 414.66 206.83 418.72 229.87 C 419.95 236.15 416.53 243.00 410.69 245.66 C 404.01 249.02 395.03 246.09 391.60 239.45 C 389.81 235.67 389.22 231.48 388.34 227.44 C 382.20 200.19 367.41 175.02 346.73 156.27 C 328.34 139.22 305.16 127.36 280.53 122.59 C 275.01 121.87 269.06 119.75 266.45 114.42 C 261.95 106.64 266.60 95.64 275.31 93.46 Z" />
</g>
</svg>
