<?xml version="1.0" encoding="UTF-8" ?>
<!DOCTYPE svg PUBLIC "-//W3C//DTD SVG 1.1//EN" "http://www.w3.org/Graphics/SVG/1.1/DTD/svg11.dtd">
<svg width="80px" height="80px" viewBox="0 0 512 512" version="1.1" xmlns="http://www.w3.org/2000/svg">
<g id="#000000ff">
<path fill="#F8F8F8" opacity="1.00" d=" M 13.24 89.20 C 21.76 80.57 33.88 75.80 45.98 76.00 C 185.98 76.00 325.98 76.00 465.97 76.00 C 477.42 75.77 488.88 79.99 497.28 87.78 C 506.19 95.80 511.50 107.48 512.00 119.43 L 512.00 394.08 C 510.92 406.22 505.12 417.93 495.62 425.66 C 487.41 432.50 476.74 436.17 466.06 436.00 C 326.05 436.00 186.04 436.00 46.03 436.00 C 31.77 436.30 17.58 429.46 9.07 417.99 C 3.81 411.17 0.93 402.79 0.00 394.27 L 0.00 119.43 C 0.46 108.17 5.19 97.13 13.24 89.20 M 51.94 106.01 C 115.84 170.14 179.77 234.24 243.66 298.37 C 249.93 305.21 262.09 305.17 268.37 298.36 C 332.27 234.24 396.19 170.14 460.09 106.00 C 324.04 106.00 187.99 105.99 51.94 106.01 M 30.01 126.53 C 29.99 212.84 30.00 299.16 30.01 385.47 C 73.04 342.32 116.08 299.17 159.06 255.98 C 116.05 212.83 73.05 169.66 30.01 126.53 M 352.97 255.98 C 395.93 299.18 438.99 342.29 481.99 385.46 C 482.01 299.15 482.00 212.85 481.99 126.54 C 438.98 169.68 395.98 212.83 352.97 255.98 M 51.93 405.98 C 187.99 406.02 324.04 405.99 460.10 406.00 C 417.32 363.08 374.56 320.16 331.76 277.26 C 317.19 291.83 302.71 306.48 288.09 321.00 C 271.17 337.38 241.62 337.60 224.46 321.47 C 209.60 306.86 195.03 291.95 180.24 277.26 C 137.47 320.16 94.71 363.08 51.93 405.98 Z" />
</g>
</svg>
