<?xml version="1.0" standalone="no"?>
<!DOCTYPE svg PUBLIC "-//W3C//DTD SVG 20010904//EN"
 "http://www.w3.org/TR/2001/REC-SVG-20010904/DTD/svg10.dtd">
<svg version="1.0" xmlns="http://www.w3.org/2000/svg"
 width="auto" height="35px" viewBox="0 0 351.000000 276.000000"
 preserveAspectRatio="xMidYMid meet">

<g transform="translate(0.000000,276.000000) scale(0.100000,-0.100000)"
fill="#00FF00" stroke="none">
<path d="M1525 2635 c-257 -47 -485 -161 -669 -335 -172 -163 -291 -366 -363
-618 -27 -93 -28 -107 -28 -317 0 -243 5 -275 80 -470 206 -536 744 -870 1317
-816 301 29 551 142 767 347 271 259 405 571 405 944 0 213 -44 393 -145 590
-178 349 -530 609 -913 675 -108 18 -351 19 -451 0z m406 -91 c251 -43 457
-146 638 -318 100 -96 183 -204 237 -310 33 -65 37 -78 24 -86 -8 -5 -92 -10
-187 -10 l-171 0 -7 -32 c-9 -41 -109 -448 -124 -506 -7 -23 -16 -40 -21 -37
-11 7 -70 189 -131 407 l-44 158 -65 0 -65 0 -44 -158 c-74 -261 -121 -402
-134 -402 -11 0 -70 224 -144 548 -5 20 -11 22 -82 22 -43 0 -80 -2 -83 -5 -6
-6 218 -849 235 -885 10 -20 21 -26 54 -28 71 -5 76 2 133 180 120 379 121
381 140 362 7 -7 47 -127 90 -269 43 -142 84 -261 92 -266 7 -5 29 -9 48 -9
78 0 68 -22 175 373 136 505 128 483 166 491 17 3 67 6 110 6 113 0 120 -9
154 -204 19 -112 19 -298 0 -408 -42 -242 -181 -499 -361 -668 -148 -138 -373
-256 -565 -297 -62 -13 -132 -17 -269 -17 -172 -1 -192 1 -284 27 -142 39
-324 128 -421 205 -78 61 -222 215 -270 287 -64 97 -108 182 -100 195 4 6 70
10 154 10 214 0 205 -4 236 91 l27 79 176 -2 177 -3 26 -75 c29 -84 35 -87
132 -89 39 -1 57 3 57 12 0 6 -38 116 -85 242 -47 127 -120 327 -163 445 l-77
215 -62 3 c-56 3 -63 1 -74 -20 -7 -12 -78 -205 -159 -428 l-147 -405 -129 0
-129 0 -13 40 c-43 128 -63 382 -43 525 39 266 166 508 368 701 99 95 177 148
307 210 220 104 470 142 697 103z m-617 -1137 c25 -78 47 -153 48 -167 l3 -25
-117 -3 c-104 -2 -118 -1 -118 14 0 19 86 265 107 307 8 15 18 25 23 22 4 -3
29 -69 54 -148z"/>
</g>
</svg>
